<svg width="506" height="43" viewBox="0 0 506 43" fill="none" xmlns="http://www.w3.org/2000/svg">
<path d="M68.75 1.81006H96.25L72.5 41.8101H45L68.75 1.81006Z" fill="#FF7A00"/>
<path d="M43.75 1.81006H63.75L40 41.8101H20L43.75 1.81006Z" fill="#FF9736"/>
<path d="M23.75 1.81006H38.75L15 41.8101H0L23.75 1.81006Z" fill="#FFBC7D"/>
<path d="M120.64 34.8799C118.6 34.8799 116.823 34.5666 115.31 33.9399C113.803 33.3133 112.63 32.3833 111.79 31.1499C110.943 29.9166 110.497 28.3999 110.45 26.5999H115.53C115.597 27.4599 115.853 28.1766 116.3 28.7499C116.74 29.3233 117.33 29.7533 118.07 30.0399C118.817 30.3266 119.657 30.4699 120.59 30.4699C121.523 30.4699 122.333 30.3366 123.02 30.0699C123.713 29.7966 124.253 29.4166 124.64 28.9299C125.027 28.4366 125.22 27.8666 125.22 27.2199C125.22 26.6399 125.047 26.1533 124.7 25.7599C124.353 25.3666 123.853 25.0266 123.2 24.7399C122.553 24.4533 121.763 24.2033 120.83 23.9899L118.02 23.2899C115.867 22.7633 114.18 21.9399 112.96 20.8199C111.747 19.6999 111.14 18.2166 111.14 16.3699C111.14 14.8299 111.553 13.4833 112.38 12.3299C113.2 11.1833 114.333 10.2899 115.78 9.64994C117.22 9.00994 118.863 8.68994 120.71 8.68994C122.59 8.68994 124.23 9.01327 125.63 9.65994C127.03 10.3066 128.123 11.1999 128.91 12.3399C129.697 13.4866 130.1 14.8066 130.12 16.2999H125.08C124.987 15.2733 124.55 14.4799 123.77 13.9199C122.99 13.3666 121.953 13.0899 120.66 13.0899C119.78 13.0899 119.027 13.2133 118.4 13.4599C117.773 13.7133 117.293 14.0599 116.96 14.4999C116.633 14.9466 116.47 15.4566 116.47 16.0299C116.47 16.6566 116.66 17.1766 117.04 17.5899C117.42 18.0033 117.92 18.3399 118.54 18.5999C119.167 18.8533 119.837 19.0666 120.55 19.2399L122.86 19.7999C123.933 20.0399 124.93 20.3666 125.85 20.7799C126.77 21.1866 127.58 21.6899 128.28 22.2899C128.973 22.8899 129.51 23.5999 129.89 24.4199C130.27 25.2399 130.46 26.1833 130.46 27.2499C130.46 28.7899 130.073 30.1333 129.3 31.2799C128.527 32.4266 127.407 33.3133 125.94 33.9399C124.467 34.5666 122.7 34.8799 120.64 34.8799ZM143.08 34.8399C140.82 34.8399 138.8 34.3266 137.02 33.2999C135.233 32.2799 133.827 30.7933 132.8 28.8399C131.767 26.8933 131.25 24.5433 131.25 21.7899C131.25 19.0166 131.767 16.6533 132.8 14.6999C133.84 12.7466 135.253 11.2566 137.04 10.2299C138.833 9.20327 140.847 8.68994 143.08 8.68994C144.527 8.68994 145.873 8.89327 147.12 9.29994C148.367 9.70661 149.473 10.2966 150.44 11.0699C151.407 11.8433 152.2 12.7933 152.82 13.9199C153.433 15.0399 153.837 16.3099 154.03 17.7299H148.75C148.637 17.0366 148.417 16.4199 148.09 15.8799C147.763 15.3399 147.36 14.8799 146.88 14.4999C146.393 14.1133 145.837 13.8199 145.21 13.6199C144.583 13.4266 143.907 13.3299 143.18 13.3299C141.86 13.3299 140.697 13.6599 139.69 14.3199C138.69 14.9799 137.917 15.9399 137.37 17.1999C136.823 18.4533 136.55 19.9833 136.55 21.7899C136.55 23.6233 136.827 25.1666 137.38 26.4199C137.94 27.6733 138.717 28.6166 139.71 29.2499C140.703 29.8899 141.853 30.2099 143.16 30.2099C143.887 30.2099 144.563 30.1099 145.19 29.9099C145.81 29.7099 146.367 29.4199 146.86 29.0399C147.353 28.6599 147.763 28.1966 148.09 27.6499C148.417 27.1033 148.643 26.4866 148.77 25.7999H154.05C153.91 26.9733 153.56 28.1033 153 29.1899C152.433 30.2699 151.683 31.2366 150.75 32.0899C149.817 32.9433 148.707 33.6166 147.42 34.1099C146.127 34.5966 144.68 34.8399 143.08 34.8399ZM160.78 34.4999H155.57V9.03994H160.78V19.3199H171.87V9.03994H177.1V34.4999H171.87V23.6499H160.78V34.4999ZM190.61 34.8399C188.37 34.8399 186.353 34.3266 184.56 33.2999C182.76 32.2799 181.34 30.7933 180.3 28.8399C179.26 26.8933 178.74 24.5433 178.74 21.7899C178.74 19.0166 179.26 16.6533 180.3 14.6999C181.34 12.7466 182.76 11.2566 184.56 10.2299C186.353 9.20327 188.37 8.68994 190.61 8.68994C192.87 8.68994 194.893 9.20327 196.68 10.2299C198.467 11.2566 199.883 12.7466 200.93 14.6999C201.97 16.6533 202.49 19.0166 202.49 21.7899C202.49 24.5433 201.97 26.8933 200.93 28.8399C199.883 30.7933 198.467 32.2799 196.68 33.2999C194.893 34.3266 192.87 34.8399 190.61 34.8399ZM190.61 30.2099C191.937 30.2099 193.093 29.8866 194.08 29.2399C195.06 28.5999 195.823 27.6499 196.37 26.3899C196.917 25.1299 197.19 23.5966 197.19 21.7899C197.19 19.9499 196.917 18.4033 196.37 17.1499C195.823 15.8899 195.06 14.9366 194.08 14.2899C193.093 13.6499 191.937 13.3299 190.61 13.3299C189.303 13.3299 188.153 13.6533 187.16 14.2999C186.173 14.9466 185.407 15.8999 184.86 17.1599C184.313 18.4199 184.04 19.9633 184.04 21.7899C184.04 23.5966 184.313 25.1266 184.86 26.3799C185.407 27.6333 186.173 28.5866 187.16 29.2399C188.153 29.8866 189.303 30.2099 190.61 30.2099ZM220.33 34.4999H204.13V9.03994H209.34V30.1799H220.33V34.4999ZM225.94 34.4999H220.18L228.87 9.03994H235.71L244.63 34.4999H238.84L234.75 22.2099C234.263 20.6299 233.767 18.8966 233.26 17.0099C232.753 15.1233 232.22 13.0633 231.66 10.8299H232.79C232.257 13.0766 231.753 15.1466 231.28 17.0399C230.807 18.9399 230.337 20.6633 229.87 22.2099L225.94 34.4999ZM239.2 28.5899H225.61V24.4999H239.2V28.5899ZM250.71 34.4999H245.5V9.03994H255.43C257.37 9.03994 259.017 9.37994 260.37 10.0599C261.723 10.7466 262.757 11.7099 263.47 12.9499C264.183 14.1899 264.54 15.6466 264.54 17.3199C264.54 18.9999 264.177 20.4466 263.45 21.6599C262.73 22.8733 261.683 23.7999 260.31 24.4399C258.937 25.0866 257.27 25.4099 255.31 25.4099H248.58V21.1899H254.47C255.543 21.1899 256.423 21.0433 257.11 20.7499C257.79 20.4633 258.3 20.0299 258.64 19.4499C258.987 18.8766 259.16 18.1666 259.16 17.3199C259.16 16.4599 258.987 15.7366 258.64 15.1499C258.3 14.5633 257.787 14.1133 257.1 13.7999C256.407 13.4933 255.527 13.3399 254.46 13.3399H250.71V34.4999ZM265.45 34.4999H259.67L253.47 22.9099H259.12L265.45 34.4999ZM275.54 34.8799C273.5 34.8799 271.727 34.5666 270.22 33.9399C268.713 33.3133 267.537 32.3833 266.69 31.1499C265.85 29.9166 265.407 28.3999 265.36 26.5999H270.43C270.503 27.4599 270.76 28.1766 271.2 28.7499C271.647 29.3233 272.24 29.7533 272.98 30.0399C273.72 30.3266 274.557 30.4699 275.49 30.4699C276.423 30.4699 277.237 30.3366 277.93 30.0699C278.617 29.7966 279.153 29.4166 279.54 28.9299C279.927 28.4366 280.12 27.8666 280.12 27.2199C280.12 26.6399 279.947 26.1533 279.6 25.7599C279.253 25.3666 278.757 25.0266 278.11 24.7399C277.457 24.4533 276.663 24.2033 275.73 23.9899L272.93 23.2899C270.777 22.7633 269.09 21.9399 267.87 20.8199C266.65 19.6999 266.04 18.2166 266.04 16.3699C266.04 14.8299 266.453 13.4833 267.28 12.3299C268.107 11.1833 269.24 10.2899 270.68 9.64994C272.12 9.00994 273.763 8.68994 275.61 8.68994C277.49 8.68994 279.13 9.01327 280.53 9.65994C281.937 10.3066 283.03 11.1999 283.81 12.3399C284.597 13.4866 285.003 14.8066 285.03 16.2999H279.99C279.897 15.2733 279.46 14.4799 278.68 13.9199C277.9 13.3666 276.86 13.0899 275.56 13.0899C274.68 13.0899 273.927 13.2133 273.3 13.4599C272.673 13.7133 272.197 14.0599 271.87 14.4999C271.537 14.9466 271.37 15.4566 271.37 16.0299C271.37 16.6566 271.563 17.1766 271.95 17.5899C272.33 18.0033 272.83 18.3399 273.45 18.5999C274.07 18.8533 274.74 19.0666 275.46 19.2399L277.76 19.7999C278.833 20.0399 279.833 20.3666 280.76 20.7799C281.68 21.1866 282.487 21.6899 283.18 22.2899C283.873 22.8899 284.413 23.5999 284.8 24.4199C285.18 25.2399 285.37 26.1833 285.37 27.2499C285.37 28.7899 284.983 30.1333 284.21 31.2799C283.437 32.4266 282.313 33.3133 280.84 33.9399C279.373 34.5666 277.607 34.8799 275.54 34.8799ZM299.64 13.3599H291.84V9.03994H312.64V13.3599H304.87V34.4999H299.64V13.3599ZM319.17 34.4999H313.96V9.03994H323.88C325.82 9.03994 327.467 9.37994 328.82 10.0599C330.18 10.7466 331.217 11.7099 331.93 12.9499C332.637 14.1899 332.99 15.6466 332.99 17.3199C332.99 18.9999 332.63 20.4466 331.91 21.6599C331.183 22.8733 330.133 23.7999 328.76 24.4399C327.387 25.0866 325.72 25.4099 323.76 25.4099H317.03V21.1899H322.93C323.997 21.1899 324.873 21.0433 325.56 20.7499C326.24 20.4633 326.753 20.0299 327.1 19.4499C327.44 18.8766 327.61 18.1666 327.61 17.3199C327.61 16.4599 327.44 15.7366 327.1 15.1499C326.753 14.5633 326.237 14.1133 325.55 13.7999C324.863 13.4933 323.983 13.3399 322.91 13.3399H319.17V34.4999ZM333.9 34.4999H328.12L321.92 22.9099H327.58L333.9 34.4999ZM338.96 34.4999H333.2L341.89 9.03994H348.73L357.65 34.4999H351.86L347.77 22.2099C347.283 20.6299 346.787 18.8966 346.28 17.0099C345.773 15.1233 345.24 13.0633 344.68 10.8299H345.81C345.277 13.0766 344.773 15.1466 344.3 17.0399C343.827 18.9399 343.357 20.6633 342.89 22.2099L338.96 34.4999ZM352.22 28.5899H338.63V24.4999H352.22V28.5899ZM363.85 34.4999H358.52V9.03994H364.33L372.38 21.9199C372.793 22.5799 373.21 23.2999 373.63 24.0799C374.05 24.8533 374.48 25.7133 374.92 26.6599C375.36 27.5999 375.797 28.6633 376.23 29.8499H375.7C375.62 28.9033 375.547 27.8966 375.48 26.8299C375.42 25.7566 375.367 24.7299 375.32 23.7499C375.273 22.7699 375.25 21.9399 375.25 21.2599V9.03994H380.58V34.4999H374.76L367.44 22.8099C366.907 21.9299 366.413 21.0799 365.96 20.2599C365.5 19.4333 365.023 18.5166 364.53 17.5099C364.03 16.5099 363.44 15.3199 362.76 13.9399H363.43C363.497 15.1733 363.563 16.3533 363.63 17.4799C363.697 18.6066 363.75 19.6299 363.79 20.5499C363.83 21.4633 363.85 22.2099 363.85 22.7899V34.4999ZM392.25 34.8799C390.217 34.8799 388.443 34.5666 386.93 33.9399C385.423 33.3133 384.247 32.3833 383.4 31.1499C382.56 29.9166 382.117 28.3999 382.07 26.5999H387.14C387.213 27.4599 387.47 28.1766 387.91 28.7499C388.357 29.3233 388.95 29.7533 389.69 30.0399C390.43 30.3266 391.267 30.4699 392.2 30.4699C393.133 30.4699 393.947 30.3366 394.64 30.0699C395.327 29.7966 395.863 29.4166 396.25 28.9299C396.637 28.4366 396.83 27.8666 396.83 27.2199C396.83 26.6399 396.657 26.1533 396.31 25.7599C395.963 25.3666 395.467 25.0266 394.82 24.7399C394.167 24.4533 393.373 24.2033 392.44 23.9899L389.64 23.2899C387.487 22.7633 385.8 21.9399 384.58 20.8199C383.36 19.6999 382.75 18.2166 382.75 16.3699C382.75 14.8299 383.163 13.4833 383.99 12.3299C384.817 11.1833 385.95 10.2899 387.39 9.64994C388.83 9.00994 390.473 8.68994 392.32 8.68994C394.2 8.68994 395.84 9.01327 397.24 9.65994C398.647 10.3066 399.743 11.1999 400.53 12.3399C401.317 13.4866 401.72 14.8066 401.74 16.2999H396.7C396.607 15.2733 396.17 14.4799 395.39 13.9199C394.61 13.3666 393.57 13.0899 392.27 13.0899C391.397 13.0899 390.647 13.2133 390.02 13.4599C389.393 13.7133 388.913 14.0599 388.58 14.4999C388.247 14.9466 388.08 15.4566 388.08 16.0299C388.08 16.6566 388.273 17.1766 388.66 17.5899C389.04 18.0033 389.54 18.3399 390.16 18.5999C390.78 18.8533 391.45 19.0666 392.17 19.2399L394.48 19.7999C395.547 20.0399 396.543 20.3666 397.47 20.7799C398.39 21.1866 399.197 21.6899 399.89 22.2899C400.59 22.8899 401.13 23.5999 401.51 24.4199C401.89 25.2399 402.08 26.1833 402.08 27.2499C402.08 28.7899 401.693 30.1333 400.92 31.2799C400.147 32.4266 399.023 33.3133 397.55 33.9399C396.083 34.5666 394.317 34.8799 392.25 34.8799ZM403.57 9.03994H408.78V34.4999H403.57V9.03994ZM417.89 13.3599H410.09V9.03994H430.89V13.3599H423.11V34.4999H417.89V13.3599ZM443.43 34.4999H438.22V9.03994H443.43V19.3199H454.52V9.03994H459.75V34.4999H454.52V23.6499H443.43V34.4999ZM472.6 34.8599C470.493 34.8599 468.65 34.4699 467.07 33.6899C465.497 32.9099 464.273 31.8233 463.4 30.4299C462.527 29.0433 462.09 27.4199 462.09 25.5599V9.03994H467.3V25.1299C467.3 26.1233 467.52 27.0066 467.96 27.7799C468.4 28.5466 469.017 29.1499 469.81 29.5899C470.597 30.0233 471.527 30.2399 472.6 30.2399C473.66 30.2399 474.587 30.0233 475.38 29.5899C476.173 29.1499 476.787 28.5466 477.22 27.7799C477.66 27.0066 477.88 26.1233 477.88 25.1299V9.03994H483.11V25.5599C483.11 27.4199 482.673 29.0433 481.8 30.4299C480.92 31.8233 479.69 32.9099 478.11 33.6899C476.537 34.4699 474.7 34.8599 472.6 34.8599ZM496.18 34.4999H485.43V9.03994H495.53C497.403 9.03994 498.963 9.31994 500.21 9.87994C501.457 10.4466 502.39 11.2199 503.01 12.1999C503.63 13.1799 503.94 14.3066 503.94 15.5799C503.94 16.5866 503.74 17.4599 503.34 18.1999C502.947 18.9466 502.403 19.5566 501.71 20.0299C501.023 20.5033 500.24 20.8433 499.36 21.0499V21.3099C500.32 21.3433 501.223 21.6133 502.07 22.1199C502.917 22.6266 503.607 23.3333 504.14 24.2399C504.667 25.1466 504.93 26.2299 504.93 27.4899C504.93 28.8233 504.6 30.0199 503.94 31.0799C503.28 32.1399 502.303 32.9766 501.01 33.5899C499.717 34.1966 498.107 34.4999 496.18 34.4999ZM490.65 23.3099V30.2099H495.16C496.687 30.2099 497.803 29.9133 498.51 29.3199C499.217 28.7266 499.57 27.9533 499.57 26.9999C499.57 26.2666 499.397 25.6233 499.05 25.0699C498.697 24.5233 498.203 24.0933 497.57 23.7799C496.93 23.4666 496.17 23.3099 495.29 23.3099H490.65ZM490.65 13.2899V19.7299H494.76C495.507 19.7299 496.173 19.5966 496.76 19.3299C497.353 19.0633 497.82 18.6833 498.16 18.1899C498.493 17.6899 498.66 17.0999 498.66 16.4199C498.66 15.4933 498.333 14.7399 497.68 14.1599C497.027 13.5799 496.09 13.2899 494.87 13.2899H490.65Z" fill="black"/>
</svg>
