<svg width="469" height="98" viewBox="0 0 469 98" fill="none" xmlns="http://www.w3.org/2000/svg">
<path d="M124.652 18.9815L124.658 83.4582L122.261 83.5335C112.86 83.6513 95.6222 84.1752 82.4179 87.7762C91.1766 87.2843 101.859 88.3764 111.62 89.5544C120.092 90.5385 127.919 91.5179 133.08 91.4623L133.033 19.7802C130.361 19.6688 127.598 19.372 124.652 18.9815ZM0.506827 19.7603L0.554147 91.4425C5.62268 91.4785 13.463 90.5183 22.0406 89.5632C31.7254 88.4313 42.4239 87.3066 51.176 87.7385C38.0226 84.1346 20.7922 83.6424 11.3008 83.4825L8.9048 83.4654L8.89882 18.9887C6.0394 19.3378 3.18063 19.5946 0.506827 19.7603Z" fill="url(#paint0_linear_2_269)"/>
<path d="M8.3791 6.76311L8.37785 79.6178C24.6887 79.9438 55.1705 81.089 66.6892 91.4715C78.2325 81.0509 108.736 79.8848 125.052 79.6971L125.054 6.75674C108.321 5.91316 92.0872 6.44408 79.1427 11.458C81.0701 24.4891 85.1038 40.6221 87.7676 48.0099C78.1217 56.4795 70.3138 69.3327 67.8831 82.5793L66.7729 82.5688L67.0658 60.484C68.9471 60.245 70.4151 58.5467 70.5206 56.4074C70.5431 54.0105 68.7673 52.1103 66.6322 52.09C64.497 52.0698 62.7712 53.9368 62.6641 56.2473C62.644 58.3874 64.079 60.1988 66.0409 60.4743L65.748 82.5591L64.5523 82.5477C62.5426 69.1734 55.0638 56.0896 45.665 47.3538C48.4655 40.189 52.8822 24.6498 55.138 11.8296C45.1833 7.71145 33.2378 6.3996 20.5107 6.45012C16.4967 6.41205 12.3956 6.54437 8.3791 6.76311Z" fill="url(#paint1_linear_2_269)"/>
<path d="M433.816 19.9378C429.191 19.9378 426.944 22.948 426.944 29.1398C426.944 32.2565 427.547 34.6344 428.736 36.2062C429.896 37.7403 431.581 38.4856 433.887 38.4856C436.161 38.4856 437.835 37.7399 439.002 36.205C440.2 34.6316 440.806 32.2549 440.806 29.1398C440.806 26.0303 440.199 23.6809 438.997 22.1567C437.822 20.6635 436.126 19.9378 433.816 19.9378ZM433.768 43.486C431.278 43.486 429.038 42.8934 427.112 41.724C425.173 40.5507 423.661 38.8452 422.62 36.6571C421.594 34.5003 421.073 31.9714 421.073 29.1398C421.073 24.714 422.209 21.2005 424.448 18.6964C426.708 16.1704 429.899 14.8901 433.934 14.8901C437.814 14.8901 440.945 16.1948 443.243 18.7693C445.521 21.3198 446.677 24.8089 446.677 29.1398C446.677 33.5828 445.525 37.1164 443.253 39.6449C440.962 42.1938 437.771 43.486 433.768 43.486Z" fill="#818285"/>
<path d="M426.222 29.1401C426.222 32.4322 426.868 34.9338 428.162 36.6433C429.456 38.3541 431.364 39.2086 433.887 39.2086C436.377 39.2086 438.274 38.3541 439.576 36.6433C440.877 34.9338 441.528 32.4322 441.528 29.1401C441.528 25.8479 440.873 23.3712 439.564 21.7089C438.254 20.0466 436.339 19.2149 433.816 19.2149C428.754 19.2149 426.222 22.5234 426.222 29.1401ZM445.955 29.1401C445.955 33.4197 444.875 36.7591 442.718 39.161C440.559 41.5629 437.576 42.7634 433.768 42.7634C431.404 42.7634 429.308 42.2116 427.484 41.106C425.659 40.0003 424.255 38.4141 423.271 36.3458C422.287 34.2775 421.795 31.876 421.795 29.1401C421.795 24.8781 422.858 21.5571 424.985 19.1788C427.112 16.8017 430.094 15.6128 433.934 15.6128C437.616 15.6128 440.54 16.8258 442.705 19.2513C444.872 21.6768 445.955 24.9738 445.955 29.1401Z" fill="#818285"/>
<path d="M453.183 43.0091V20.1529H448.613V16.8996L453.183 15.4203V14.4436C453.183 11.0971 453.945 8.52856 455.445 6.80942C456.97 5.06305 459.31 4.17725 462.402 4.17725C464.14 4.17725 465.924 4.4872 467.706 5.09949L468.387 5.33295L466.783 10.0531L466.109 9.83443C464.711 9.38312 463.48 9.15407 462.45 9.15407C461.238 9.15407 460.377 9.52568 459.818 10.2901C459.216 11.1139 458.912 12.4954 458.912 14.396V15.3667H465.505V20.1529H458.912V43.0091H453.183Z" fill="#818285"/>
<path d="M464.783 19.4303H458.19V42.2861H453.905V19.4303H449.335V17.4256L453.905 15.9464V14.4435C453.905 11.2623 454.6 8.87639 455.989 7.2858C457.376 5.6956 459.514 4.8999 462.402 4.8999C464.069 4.8999 465.759 5.19464 467.473 5.7829L466.33 9.1467C464.854 8.66976 463.561 8.43109 462.451 8.43109C461.006 8.43109 459.935 8.90803 459.237 9.86231C458.539 10.8178 458.19 12.3279 458.19 14.3962V16.0897H464.783V19.4303Z" fill="#818285"/>
<path d="M237.696 86.4622C237.696 89.9797 236.433 92.7505 233.907 94.7759C231.381 96.801 227.868 97.8138 223.367 97.8138C219.22 97.8138 215.551 97.0325 212.361 95.4687V87.7945C214.984 88.9666 217.204 89.7931 219.021 90.2729C220.837 90.7526 222.498 90.9921 224.005 90.9921C225.813 90.9921 227.199 90.6453 228.165 89.9525C229.131 89.2601 229.614 88.2298 229.614 86.8622C229.614 86.0981 229.401 85.419 228.976 84.8231C228.55 84.2284 227.926 83.6554 227.101 83.1044C226.278 82.5541 224.598 81.6748 222.064 80.467C219.689 79.3473 217.908 78.2733 216.721 77.2425C215.533 76.2126 214.585 75.0132 213.876 73.6453C213.168 72.2777 212.813 70.6787 212.813 68.8495C212.813 65.4032 213.978 62.6937 216.309 60.7219C218.639 58.7501 221.86 57.7642 225.972 57.7642C227.993 57.7642 229.92 58.0044 231.754 58.4838C233.588 58.9635 235.506 59.6387 237.509 60.5089L234.851 66.9305C232.777 66.0783 231.063 65.4833 229.707 65.1453C228.351 64.8077 227.018 64.6395 225.706 64.6395C224.147 64.6395 222.95 65.0031 222.117 65.7316C221.284 66.46 220.868 67.4107 220.868 68.5828C220.868 69.3112 221.036 69.9459 221.373 70.4877C221.71 71.0299 222.246 71.5537 222.982 72.0603C223.717 72.5661 225.458 73.4771 228.205 74.791C231.838 76.5321 234.328 78.2781 235.675 80.0273C237.022 81.7769 237.696 83.9217 237.696 86.4622Z" fill="#818285"/>
<path d="M252.904 97.8139C243.654 97.8139 239.028 92.7246 239.028 82.5455C239.028 77.4826 240.286 73.6146 242.803 70.9412C245.32 68.2674 248.925 66.9307 253.621 66.9307C257.06 66.9307 260.144 67.6058 262.874 68.9562L260.481 75.2448C259.205 74.7295 258.016 74.3078 256.918 73.9786C255.819 73.6503 254.721 73.4857 253.621 73.4857C249.404 73.4857 247.296 76.4879 247.296 82.4918C247.296 88.3192 249.404 91.2321 253.621 91.2321C255.181 91.2321 256.626 91.0239 257.955 90.6058C259.284 90.1889 260.614 89.5358 261.943 88.6476V95.6022C260.631 96.4372 259.306 97.0142 257.969 97.3346C256.63 97.6537 254.943 97.8139 252.904 97.8139Z" fill="#818285"/>
<path d="M292.996 97.2809H284.888V79.8809C284.888 75.5816 283.293 73.432 280.103 73.432C277.833 73.432 276.195 74.2053 275.184 75.751C274.175 77.2964 273.669 79.8008 273.669 83.2647V97.2809H265.561V55.8193H273.669V64.2661C273.669 64.9236 273.607 66.4694 273.484 68.9033L273.297 71.3004H273.723C275.53 68.3875 278.402 66.9307 282.335 66.9307C285.827 66.9307 288.476 67.8725 290.283 69.7555C292.092 71.6388 292.996 74.3386 292.996 77.8554V97.2809Z" fill="#818285"/>
<path d="M304.537 82.3325C304.537 85.281 305.02 87.5111 305.985 89.0204C306.952 90.5309 308.523 91.2858 310.704 91.2858C312.866 91.2858 314.421 90.5353 315.37 89.034C316.317 87.5327 316.792 85.299 316.792 82.3325C316.792 79.3843 316.313 77.1722 315.355 75.6978C314.399 74.2233 312.831 73.4857 310.65 73.4857C308.489 73.4857 306.928 74.2185 305.972 75.6837C305.016 77.1498 304.537 79.3663 304.537 82.3325ZM325.085 82.3325C325.085 87.1815 323.809 90.975 321.258 93.7105C318.705 96.446 315.152 97.8139 310.598 97.8139C307.745 97.8139 305.228 97.1876 303.048 95.935C300.868 94.6828 299.193 92.8848 298.024 90.5393C296.854 88.1951 296.27 85.4592 296.27 82.3325C296.27 77.4654 297.536 73.6811 300.071 70.9812C302.605 68.281 306.167 66.9307 310.757 66.9307C313.61 66.9307 316.127 67.5526 318.307 68.796C320.487 70.0402 322.162 71.8254 323.332 74.152C324.501 76.4794 325.085 79.2057 325.085 82.3325Z" fill="#818285"/>
<path d="M328.518 55.8193H336.625V97.2809H328.518V55.8193Z" fill="#818285"/>
<path d="M358.348 83.4783L355.21 83.5852C352.853 83.6557 351.098 84.0826 349.948 84.8638C348.795 85.6455 348.219 86.8353 348.219 88.4343C348.219 90.7261 349.531 91.8717 352.154 91.8717C354.032 91.8717 355.534 91.3303 356.66 90.2463C357.785 89.1631 358.348 87.7239 358.348 85.9294V83.4783ZM360.741 97.2811L359.172 93.2305H358.959C357.594 94.9536 356.19 96.1486 354.745 96.8145C353.301 97.4809 351.418 97.8141 349.097 97.8141C346.243 97.8141 343.996 96.9971 342.358 95.3621C340.719 93.7286 339.899 91.4012 339.899 88.381C339.899 85.2194 341.002 82.888 343.208 81.3867C345.415 79.8854 348.742 79.0549 353.191 78.8951L358.348 78.7349V77.4298C358.348 74.4096 356.806 72.8991 353.722 72.8991C351.347 72.8991 348.556 73.6195 345.348 75.0584L342.664 69.569C346.083 67.7745 349.876 66.8779 354.041 66.8779C358.028 66.8779 361.086 67.7481 363.213 69.4889C365.339 71.23 366.402 73.8766 366.402 77.4298V97.2811H360.741Z" fill="#818285"/>
<path d="M388.072 66.9307C389.17 66.9307 390.083 67.0108 390.81 67.1709L390.199 74.7915C389.542 74.6141 388.745 74.5252 387.806 74.5252C385.218 74.5252 383.202 75.1912 381.757 76.5231C380.313 77.8554 379.591 79.7207 379.591 82.119V97.2809H371.484V67.4905H377.624L378.82 72.4998H379.219C380.141 70.8303 381.386 69.4851 382.953 68.4628C384.523 67.4416 386.229 66.9307 388.072 66.9307Z" fill="#818285"/>
<path d="M413.675 88.4341C413.675 91.4896 412.615 93.8166 410.498 95.4156C408.38 97.0142 405.212 97.8139 400.994 97.8139C398.832 97.8139 396.989 97.6674 395.465 97.3742C393.941 97.0807 392.515 96.6506 391.185 96.082V89.3668C392.691 90.0776 394.388 90.6727 396.276 91.152C398.163 91.6313 399.824 91.8716 401.26 91.8716C404.202 91.8716 405.673 91.0187 405.673 89.3131C405.673 88.674 405.478 88.1546 405.088 87.7546C404.698 87.3553 404.025 86.9024 403.068 86.3958C402.111 85.8897 400.835 85.299 399.24 84.6234C396.953 83.6648 395.275 82.7762 394.203 81.9588C393.13 81.1419 392.35 80.2053 391.863 79.1481C391.376 78.0917 391.132 76.7898 391.132 75.2444C391.132 72.5979 392.156 70.5508 394.203 69.1023C396.249 67.6551 399.151 66.9307 402.909 66.9307C406.488 66.9307 409.971 67.7127 413.355 69.2757L410.909 75.1379C409.422 74.498 408.03 73.975 406.736 73.5658C405.442 73.1573 404.123 72.9527 402.775 72.9527C400.383 72.9527 399.187 73.601 399.187 74.8981C399.187 75.6265 399.572 76.2568 400.343 76.7898C401.114 77.3228 402.802 78.1137 405.407 79.1617C407.729 80.1031 409.43 80.9829 410.512 81.7999C411.592 82.6164 412.39 83.5574 412.903 84.6234C413.417 85.6894 413.675 86.9597 413.675 88.4341Z" fill="#818285"/>
<path d="M171.738 43.078L170.652 39.2905H170.227C169.362 40.6676 168.134 41.732 166.544 42.4821C164.954 43.2321 163.143 43.6078 161.112 43.6078C157.631 43.6078 155.008 42.6767 153.242 40.8134C151.475 38.9509 150.592 36.2711 150.592 32.7751V1.32764H158.674V30.7625C158.674 32.8993 159.054 34.5015 159.813 35.5695C160.573 36.6379 161.783 37.1717 163.444 37.1717C165.705 37.1717 167.339 36.4168 168.346 34.9075C169.353 33.3978 169.857 30.895 169.857 27.3991V13.4677H177.939V43.078H171.738Z" fill="#818285"/>
<path d="M212.842 43.0781H204.76V25.7834C204.76 23.6473 204.38 22.0451 203.621 20.9763C202.862 19.9083 201.65 19.3741 199.99 19.3741C197.729 19.3741 196.095 20.129 195.088 21.6383C194.081 23.148 193.578 25.6508 193.578 29.1468V43.0781H185.496V13.4678H191.67L192.756 17.2553H193.207C194.107 15.8249 195.349 14.7441 196.93 14.0109C198.51 13.2784 200.308 12.9116 202.322 12.9116C205.767 12.9116 208.381 13.8435 210.166 15.706C211.95 17.5693 212.842 20.2575 212.842 23.7707V43.0781Z" fill="#818285"/>
<path d="M220.241 13.4678H228.323V43.078H220.241V13.4678Z" fill="#818285"/>
<path d="M242.929 43.078L231.64 13.4678H240.094L245.742 30.3424C246.289 32.3143 246.625 32.8849 246.997 35.0477C247.481 32.9814 247.767 32.3863 248.362 30.3388L254.059 13.4678H262.512L251.224 43.078H242.929Z" fill="#818285"/>
<path d="M278.097 18.6589C276.384 18.6589 275.041 19.2019 274.069 20.2879C273.098 21.3736 272.542 22.9145 272.4 24.9096H283.742C283.706 22.9145 283.185 21.3736 282.178 20.2879C281.171 19.2019 279.81 18.6589 278.097 18.6589ZM279.237 43.6079C274.467 43.6079 270.74 42.2928 268.054 39.6614C265.368 37.0308 264.026 33.305 264.026 28.4848C264.026 23.5236 265.268 19.6881 267.75 16.977C270.231 14.2671 273.662 12.9116 278.044 12.9116C282.231 12.9116 285.49 14.1038 287.822 16.4873C290.154 18.8707 291.32 22.1641 291.32 26.366L290.664 30.286H272.214C272.303 32.5814 272.983 34.3738 274.255 35.6621C275.526 36.9516 277.311 37.5959 279.607 37.5959C281.392 37.5959 283.079 37.4105 284.669 37.0393C286.259 36.6688 287.242 35.7714 288.866 34.848L289.651 41.5155C288.237 42.2219 286.727 42.7469 285.119 43.0913C283.512 43.4357 281.551 43.6079 279.237 43.6079Z" fill="#818285"/>
<path d="M313.505 12.9116C314.601 12.9116 315.51 12.9909 316.234 13.1499L314.836 21.0384C314.367 20.6656 314.177 20.4597 313.24 20.4597C310.66 20.4597 308.652 21.1217 307.211 22.4464C305.771 23.7703 305.052 25.6244 305.052 28.0079V43.0781H296.969V13.4678H303.091L304.283 18.4471H304.681C305.599 16.7876 306.84 15.4501 308.403 14.4345C309.968 13.4194 311.667 12.9116 313.505 12.9116Z" fill="#818285"/>
<path d="M341.36 34.285C341.36 37.322 340.304 39.635 338.193 41.224C336.083 42.813 332.924 43.6075 328.72 43.6075C326.564 43.6075 324.728 43.4621 323.208 43.1706C321.689 42.8791 319.383 41.8455 318.058 41.28L319.495 34.54C320.86 35.3449 322.135 36.5095 324.017 36.9864C325.898 37.4633 327.554 37.7016 328.985 37.7016C331.917 37.7016 333.384 36.8538 333.384 35.1591C333.384 34.5232 333.189 34.0066 332.801 33.6094C332.412 33.2121 331.741 32.762 330.787 32.2587C329.833 31.7557 328.561 31.169 326.971 30.4975C324.692 29.544 323.019 28.6614 321.95 27.8489C320.88 27.0372 320.104 26.1057 319.618 25.0549C319.131 24.0049 318.889 22.7111 318.889 21.1749C318.889 18.5444 319.909 16.5097 321.95 15.0701C323.99 13.6312 326.882 12.9116 330.628 12.9116C334.196 12.9116 338.143 13.962 341.517 15.5154L338.13 21.1389C336.646 20.5034 335.733 19.9127 334.443 19.5063C333.155 19.1006 331.837 18.8972 330.496 18.8972C328.11 18.8972 326.918 19.5423 326.918 20.8306C326.918 21.555 327.302 22.1813 328.071 22.7111C328.839 23.2405 330.522 24.0266 333.119 25.0681C335.433 26.0044 337.129 26.8782 338.206 27.6903C339.284 28.5028 340.079 29.4379 340.592 30.4975C341.104 31.5571 341.36 32.8197 341.36 34.285Z" fill="#818285"/>
<path d="M346.743 13.4678H354.825V43.078H346.743V13.4678Z" fill="#818285"/>
<path d="M374.864 37.172C376.277 37.172 377.973 36.8633 379.951 36.245V42.257C377.937 43.1576 375.464 43.6077 372.532 43.6077C369.299 43.6077 366.945 42.7916 365.47 41.1581C363.995 39.5251 363.257 37.0751 363.257 33.8086V19.5329H359.389V16.1163L363.84 13.4148L366.172 7.16455H371.339V13.4681H379.633V19.5329H371.339V33.8086C371.339 34.9563 371.661 35.8041 372.307 36.3511C372.952 36.8985 373.804 37.172 374.864 37.172Z" fill="#818285"/>
<path d="M380.703 13.5166H389.554L395.145 30.1754C395.622 31.6234 396.061 33.3366 396.238 35.3136C396.506 33.5308 396.859 31.7824 397.424 30.1754L402.909 13.5166H411.575L399.04 46.9139C397.892 50.0034 396.254 52.3168 394.125 53.8529C391.996 55.3891 389.51 56.1571 386.666 56.1571C385.27 56.1571 383.901 56.007 382.559 55.707V49.2978C383.529 49.5269 384.59 49.6418 385.738 49.6418C387.169 49.6418 388.419 49.2049 389.488 48.3311C390.557 47.4569 391.392 46.1366 391.992 44.3714L392.469 42.915L380.703 13.5166Z" fill="#818285"/>
<path d="M224.282 0.00012125L230.454 6.18799L224.281 12.3752L218.109 6.1873L224.282 0.00012125Z" fill="#5C0532"/>
<path d="M350.784 0.00012125L356.957 6.18799L350.784 12.3752L344.611 6.1873L350.784 0.00012125Z" fill="#5C0532"/>
<defs>
<linearGradient id="paint0_linear_2_269" x1="67.1187" y1="9.51925" x2="66.461" y2="101.888" gradientUnits="userSpaceOnUse">
<stop stop-color="white"/>
<stop offset="1" stop-color="#393536"/>
</linearGradient>
<linearGradient id="paint1_linear_2_269" x1="66.2863" y1="88.8994" x2="67.0982" y2="3.29631" gradientUnits="userSpaceOnUse">
<stop stop-color="#5C0532"/>
<stop offset="1" stop-color="#808285"/>
</linearGradient>
</defs>
</svg>
