<svg width="236" height="76" viewBox="0 0 236 76" fill="none" xmlns="http://www.w3.org/2000/svg">
<rect width="236" height="76" rx="12" fill="white"/>
<path fill-rule="evenodd" clip-rule="evenodd" d="M36.4025 23.366C36.8054 23.366 37.1321 23.6936 37.1321 24.0977V29.5097C37.1321 29.6727 37.3285 29.7543 37.4434 29.6391L43.2706 23.7947C43.5442 23.5203 43.9153 23.366 44.3022 23.366H50.6916C50.885 23.366 51.0706 23.4431 51.2074 23.5803L53.3961 25.7755C53.6809 26.0612 53.6809 26.5244 53.3961 26.8101L50.5755 29.6391C50.4606 29.7543 50.5419 29.9513 50.7044 29.9513H56.528C56.7215 29.9514 56.9071 30.0285 57.0439 30.1657L59.2326 32.3608C59.5174 32.6466 59.5174 33.1097 59.2326 33.3955L56.3585 36.278C56.2161 36.4209 56.2161 36.6525 56.3585 36.7954L58.7167 39.1605C59.3773 39.8231 59.7484 40.7217 59.7484 41.6587C59.7484 42.5956 59.3773 43.4942 58.7167 44.1568L50.6916 52.2056C50.418 52.4799 50.0469 52.6342 49.66 52.6343H47.3459C46.9429 52.6343 46.6163 52.3067 46.6163 51.9026V46.4905C46.6163 46.3275 46.4199 46.2459 46.3049 46.3612L40.4777 52.2056C40.2042 52.4799 39.833 52.6342 39.4461 52.6343H33.0568C32.8633 52.6343 32.6777 52.5571 32.5409 52.4199L30.3523 50.2247C30.0675 49.939 30.0675 49.4758 30.3523 49.1901L33.1729 46.3612C33.2878 46.2459 33.2064 46.0489 33.044 46.0489H27.2203C27.0269 46.0489 26.8413 45.9717 26.7045 45.8345L24.5158 43.6394C24.231 43.3537 24.231 42.8905 24.5158 42.6047L27.3899 39.7222C27.5323 39.5794 27.5323 39.3477 27.3899 39.2049L25.0316 36.8397C24.3711 36.1771 24 35.2785 24 34.3416C24 33.4046 24.3711 32.506 25.0316 31.8435L33.0568 23.7947C33.3304 23.5203 33.7015 23.366 34.0884 23.366H36.4025ZM38.6432 29.9513C37.6757 29.9513 36.7474 30.3371 36.0634 31.0231L28.2705 38.839C28.0407 39.0695 28.2035 39.4635 28.5284 39.4635H39.1697C39.4946 39.4636 39.6573 39.8576 39.4276 40.088L34.1069 45.4244C33.8772 45.6549 34.0399 46.0488 34.3648 46.0489H45.1052C46.0727 46.0489 47.0009 45.6631 47.685 44.9771L55.4779 37.1612C55.6933 36.9452 55.5638 36.5852 55.2791 36.541L55.22 36.5367H44.5787C44.2537 36.5367 44.091 36.1427 44.3208 35.9122L49.6414 30.5759C49.8712 30.3454 49.7085 29.9514 49.3835 29.9513H38.6432Z" fill="#1447E6"/>
<path d="M75.4266 47.6402C74.0113 47.6402 72.8099 47.3841 71.8226 46.8719C70.8353 46.3597 69.9501 45.6085 69.167 44.6182L71.1587 42.6207C71.6548 43.3378 72.2409 43.8963 72.9169 44.2963C73.6027 44.7012 74.4733 44.9036 75.5287 44.9036C76.5161 44.9036 77.3016 44.6987 77.8852 44.289C78.4737 43.8792 78.768 43.3134 78.768 42.5914C78.768 41.9963 78.6148 41.5109 78.3084 41.1353C78.0019 40.7597 77.5983 40.4475 77.0973 40.1987C76.5963 39.9499 76.0419 39.728 75.4339 39.5329C74.8308 39.3378 74.2277 39.1158 73.6246 38.867C73.0215 38.6182 72.467 38.306 71.9612 37.9304C71.4602 37.5548 71.0565 37.0695 70.7501 36.4743C70.4437 35.8743 70.2905 35.1134 70.2905 34.1914C70.2905 33.1329 70.5507 32.2329 71.0711 31.4914C71.5916 30.7499 72.2944 30.1817 73.1796 29.7865C74.0648 29.3963 75.0521 29.2012 76.1416 29.2012C77.3137 29.2012 78.3643 29.4304 79.2933 29.889C80.2222 30.3524 80.9761 30.9426 81.5549 31.6597L79.5632 33.6573C79.0525 33.0768 78.5199 32.6451 77.9655 32.3621C77.411 32.0792 76.7763 31.9378 76.0613 31.9378C75.1761 31.9378 74.483 32.1182 73.9821 32.4792C73.4811 32.8353 73.2306 33.3378 73.2306 33.9865C73.2306 34.5329 73.3838 34.9743 73.6903 35.3109C73.9918 35.6426 74.3955 35.9231 74.9013 36.1524C75.4023 36.3817 75.9543 36.5987 76.5574 36.8036C77.1654 37.0085 77.7709 37.2402 78.374 37.4987C78.9771 37.7524 79.5292 38.0817 80.0301 38.4865C80.5359 38.8865 80.9421 39.4012 81.2485 40.0304C81.5549 40.6646 81.7081 41.4597 81.7081 42.4158C81.7081 44.0207 81.1415 45.2938 80.0082 46.2353C78.875 47.1719 77.3478 47.6402 75.4266 47.6402ZM89.2372 47.6402C88.0309 47.6402 86.9366 47.3597 85.9541 46.7987C84.9765 46.2329 84.2081 45.4621 83.6487 44.4865C83.0845 43.5158 82.8024 42.4329 82.8024 41.2378C82.8024 40.0231 83.0845 38.9353 83.6487 37.9743C84.2081 37.0085 84.9765 36.2426 85.9541 35.6768C86.9366 35.1158 88.0309 34.8353 89.2372 34.8353C90.1904 34.8353 91.0805 35.0182 91.9073 35.3841C92.7342 35.7499 93.437 36.2743 94.0158 36.9573L92.1773 38.8304C91.8174 38.4012 91.3869 38.0817 90.886 37.8719C90.385 37.6573 89.8354 37.5499 89.2372 37.5499C88.5368 37.5499 87.9191 37.7085 87.3841 38.0256C86.8491 38.3378 86.4332 38.767 86.1365 39.3134C85.835 39.8597 85.6842 40.5012 85.6842 41.2378C85.6842 41.9548 85.835 42.5914 86.1365 43.1475C86.4332 43.6987 86.8491 44.1329 87.3841 44.4499C87.9191 44.767 88.5368 44.9256 89.2372 44.9256C89.8354 44.9256 90.385 44.8182 90.886 44.6036C91.3869 44.3938 91.8174 44.0743 92.1773 43.6451L94.0158 45.5182C93.437 46.1963 92.7342 46.7207 91.9073 47.0914C91.0805 47.4573 90.1904 47.6402 89.2372 47.6402ZM106.725 47.3841H103.923V40.2865C103.923 39.467 103.663 38.7938 103.143 38.267C102.622 37.7353 101.953 37.4695 101.136 37.4695C100.592 37.4695 100.105 37.589 99.6771 37.828C99.254 38.067 98.9233 38.4012 98.6849 38.8304C98.4466 39.2548 98.3275 39.7402 98.3275 40.2865L97.2331 39.6719C97.2331 38.7353 97.435 37.9036 97.8387 37.1768C98.2472 36.4499 98.8138 35.8792 99.5385 35.4646C100.263 35.0451 101.075 34.8353 101.975 34.8353C102.894 34.8353 103.712 35.0402 104.427 35.4499C105.142 35.8597 105.703 36.428 106.112 37.1548C106.52 37.8768 106.725 38.7158 106.725 39.6719V47.3841ZM98.3275 47.3841H95.5187V28.9451H98.3275V47.3841ZM114.691 47.6402C113.5 47.6402 112.42 47.3548 111.452 46.7841C110.479 46.2085 109.709 45.4353 109.14 44.4646C108.57 43.4938 108.286 42.4085 108.286 41.2085C108.286 40.0134 108.57 38.9378 109.14 37.9817C109.709 37.0256 110.479 36.2621 111.452 35.6914C112.42 35.1207 113.5 34.8353 114.691 34.8353C115.903 34.8353 116.992 35.1158 117.96 35.6768C118.933 36.2426 119.704 37.0085 120.273 37.9743C120.842 38.9353 121.126 40.0134 121.126 41.2085C121.126 42.4085 120.842 43.4938 120.273 44.4646C119.704 45.4353 118.933 46.2085 117.96 46.7841C116.992 47.3548 115.903 47.6402 114.691 47.6402ZM114.691 44.9256C115.392 44.9256 116.01 44.767 116.545 44.4499C117.08 44.1329 117.498 43.6938 117.799 43.1329C118.096 42.5719 118.244 41.9304 118.244 41.2085C118.244 40.4914 118.091 39.8597 117.785 39.3134C117.478 38.767 117.06 38.3378 116.53 38.0256C116.005 37.7085 115.392 37.5499 114.691 37.5499C114.011 37.5499 113.403 37.7085 112.868 38.0256C112.333 38.3378 111.917 38.767 111.62 39.3134C111.318 39.8597 111.168 40.4914 111.168 41.2085C111.168 41.9304 111.318 42.5719 111.62 43.1329C111.917 43.6938 112.333 44.1329 112.868 44.4499C113.403 44.767 114.011 44.9256 114.691 44.9256ZM125.752 47.3841H122.943V28.9451H125.752V47.3841ZM133.485 47.6402C132.381 47.6402 131.381 47.3597 130.486 46.7987C129.591 46.2329 128.886 45.467 128.371 44.5012C127.85 43.5402 127.59 42.4597 127.59 41.2597C127.59 40.0499 127.85 38.9621 128.371 37.9963C128.886 37.0304 129.591 36.2621 130.486 35.6914C131.381 35.1207 132.381 34.8353 133.485 34.8353C134.424 34.8353 135.255 35.0353 135.98 35.4353C136.7 35.8353 137.274 36.3865 137.702 37.089C138.125 37.7865 138.336 38.5792 138.336 39.467V43.0085C138.336 43.8963 138.13 44.689 137.716 45.3865C137.298 46.0841 136.722 46.6353 135.987 47.0402C135.258 47.4402 134.424 47.6402 133.485 47.6402ZM133.945 44.9768C134.985 44.9768 135.824 44.6256 136.461 43.9231C137.099 43.2256 137.417 42.3304 137.417 41.2378C137.417 40.5012 137.274 39.8524 136.987 39.2914C136.695 38.7256 136.291 38.2865 135.776 37.9743C135.255 37.6573 134.645 37.4987 133.945 37.4987C133.264 37.4987 132.665 37.6573 132.15 37.9743C131.629 38.2865 131.221 38.7256 130.924 39.2914C130.623 39.8524 130.472 40.5012 130.472 41.2378C130.472 41.9743 130.623 42.6231 130.924 43.1841C131.221 43.7451 131.629 44.1841 132.15 44.5012C132.665 44.8182 133.264 44.9768 133.945 44.9768ZM140.051 47.3841H137.242V44.0768L137.724 41.0841L137.242 38.1134V35.0914H140.051V47.3841ZM145.464 47.3841H142.655V35.0914H145.464V47.3841ZM145.464 40.5499L144.494 40.0597C144.494 38.5036 144.839 37.2451 145.53 36.2841C146.216 35.3182 147.257 34.8353 148.652 34.8353C149.265 34.8353 149.82 34.9451 150.316 35.1646C150.807 35.389 151.267 35.7475 151.695 36.2402L149.856 38.1353C149.632 37.8963 149.384 37.7256 149.112 37.6231C148.84 37.5207 148.526 37.4695 148.171 37.4695C147.388 37.4695 146.741 37.7182 146.23 38.2158C145.72 38.7085 145.464 39.4865 145.464 40.5499ZM156.291 47.6402C155.61 47.6402 154.953 47.5499 154.321 47.3695C153.694 47.189 153.115 46.9329 152.585 46.6012C152.059 46.2695 151.6 45.8646 151.206 45.3865L152.993 43.5938C153.421 44.0914 153.913 44.4621 154.467 44.706C155.017 44.9548 155.642 45.0792 156.342 45.0792C156.969 45.0792 157.446 44.9841 157.772 44.7938C158.093 44.6085 158.253 44.3353 158.253 43.9743C158.253 43.5987 158.1 43.3109 157.794 43.1109C157.487 42.9012 157.093 42.7256 156.612 42.5841C156.126 42.4378 155.615 42.2865 155.08 42.1304C154.54 41.9792 154.029 41.7719 153.548 41.5085C153.061 41.2402 152.665 40.8768 152.359 40.4182C152.052 39.9548 151.899 39.3573 151.899 38.6256C151.899 37.8402 152.081 37.1646 152.446 36.5987C152.811 36.0378 153.331 35.6036 154.007 35.2963C154.679 34.989 155.481 34.8353 156.415 34.8353C157.402 34.8353 158.275 35.0109 159.034 35.3621C159.793 35.7085 160.427 36.2329 160.938 36.9353L159.151 38.728C158.791 38.2841 158.382 37.9499 157.925 37.7256C157.463 37.506 156.935 37.3963 156.342 37.3963C155.778 37.3963 155.342 37.4817 155.036 37.6524C154.73 37.8231 154.576 38.0695 154.576 38.3914C154.576 38.7329 154.73 38.9987 155.036 39.189C155.342 39.3743 155.739 39.5353 156.225 39.6719C156.712 39.8085 157.222 39.9597 157.757 40.1256C158.292 40.2865 158.803 40.5085 159.289 40.7914C159.776 41.0695 160.172 41.4451 160.479 41.9182C160.785 42.3865 160.938 42.9963 160.938 43.7475C160.938 44.9426 160.52 45.889 159.683 46.5865C158.852 47.289 157.721 47.6402 156.291 47.6402ZM169.773 40.6231H165.148V38.0621H169.62C170.233 38.0621 170.773 37.9378 171.24 37.689C171.706 37.4402 172.076 37.0914 172.348 36.6426C172.621 36.189 172.757 35.6548 172.757 35.0402C172.757 34.4256 172.621 33.8914 172.348 33.4378C172.076 32.9841 171.706 32.6353 171.24 32.3914C170.773 32.1426 170.233 32.0182 169.62 32.0182H165.148V29.4573H169.773C170.897 29.4573 171.906 29.6865 172.801 30.1451C173.691 30.6085 174.396 31.2573 174.917 32.0914C175.437 32.9304 175.697 33.9134 175.697 35.0402C175.697 36.167 175.437 37.1475 174.917 37.9817C174.396 38.8207 173.691 39.4695 172.801 39.928C171.906 40.3914 170.897 40.6231 169.773 40.6231ZM166.067 47.3841H163.134V29.4573H166.067V47.3841ZM182.183 47.6402C181.079 47.6402 180.079 47.3597 179.184 46.7987C178.29 46.2329 177.582 45.467 177.061 44.5012C176.546 43.5402 176.288 42.4597 176.288 41.2597C176.288 40.0499 176.546 38.9621 177.061 37.9963C177.582 37.0304 178.29 36.2621 179.184 35.6914C180.079 35.1207 181.079 34.8353 182.183 34.8353C183.122 34.8353 183.951 35.0353 184.671 35.4353C185.395 35.8353 185.969 36.3865 186.392 37.089C186.82 37.7865 187.035 38.5792 187.035 39.467V43.0085C187.035 43.8963 186.825 44.689 186.407 45.3865C185.989 46.0841 185.415 46.6353 184.685 47.0402C183.956 47.4402 183.122 47.6402 182.183 47.6402ZM182.643 44.9768C183.683 44.9768 184.522 44.6256 185.16 43.9231C185.797 43.2256 186.115 42.3304 186.115 41.2378C186.115 40.5012 185.972 39.8524 185.685 39.2914C185.393 38.7256 184.987 38.2865 184.466 37.9743C183.951 37.6573 183.343 37.4987 182.643 37.4987C181.962 37.4987 181.361 37.6573 180.841 37.9743C180.325 38.2865 179.916 38.7256 179.615 39.2914C179.318 39.8524 179.17 40.5012 179.17 41.2378C179.17 41.9743 179.318 42.6231 179.615 43.1841C179.916 43.7451 180.325 44.1841 180.841 44.5012C181.361 44.8182 181.962 44.9768 182.643 44.9768ZM188.742 47.3841H185.94V44.0768L186.422 41.0841L185.94 38.1134V35.0914H188.742V47.3841ZM195.359 47.6402C194.678 47.6402 194.024 47.5499 193.396 47.3695C192.764 47.189 192.185 46.9329 191.66 46.6012C191.13 46.2695 190.67 45.8646 190.281 45.3865L192.068 43.5938C192.492 44.0914 192.98 44.4621 193.535 44.706C194.089 44.9548 194.714 45.0792 195.41 45.0792C196.042 45.0792 196.519 44.9841 196.84 44.7938C197.166 44.6085 197.329 44.3353 197.329 43.9743C197.329 43.5987 197.175 43.3109 196.869 43.1109C196.563 42.9012 196.166 42.7256 195.68 42.5841C195.193 42.4378 194.683 42.2865 194.148 42.1304C193.613 41.9792 193.102 41.7719 192.616 41.5085C192.129 41.2402 191.733 40.8768 191.426 40.4182C191.12 39.9548 190.967 39.3573 190.967 38.6256C190.967 37.8402 191.149 37.1646 191.514 36.5987C191.884 36.0378 192.404 35.6036 193.075 35.2963C193.746 34.989 194.551 34.8353 195.49 34.8353C196.477 34.8353 197.348 35.0109 198.102 35.3621C198.861 35.7085 199.495 36.2329 200.006 36.9353L198.219 38.728C197.864 38.2841 197.455 37.9499 196.993 37.7256C196.536 37.506 196.008 37.3963 195.41 37.3963C194.851 37.3963 194.418 37.4817 194.111 37.6524C193.805 37.8231 193.652 38.0695 193.652 38.3914C193.652 38.7329 193.805 38.9987 194.111 39.189C194.418 39.3743 194.812 39.5353 195.293 39.6719C195.779 39.8085 196.29 39.9597 196.825 40.1256C197.365 40.2865 197.876 40.5085 198.357 40.7914C198.844 41.0695 199.24 41.4451 199.546 41.9182C199.853 42.3865 200.006 42.9963 200.006 43.7475C200.006 44.9426 199.59 45.889 198.759 46.5865C197.922 47.289 196.789 47.6402 195.359 47.6402ZM205.828 47.6402C205.147 47.6402 204.493 47.5499 203.865 47.3695C203.233 47.189 202.654 46.9329 202.129 46.6012C201.599 46.2695 201.139 45.8646 200.75 45.3865L202.538 43.5938C202.961 44.0914 203.45 44.4621 204.004 44.706C204.559 44.9548 205.183 45.0792 205.879 45.0792C206.511 45.0792 206.988 44.9841 207.309 44.7938C207.635 44.6085 207.798 44.3353 207.798 43.9743C207.798 43.5987 207.645 43.3109 207.338 43.1109C207.032 42.9012 206.635 42.7256 206.149 42.5841C205.663 42.4378 205.152 42.2865 204.617 42.1304C204.082 41.9792 203.571 41.7719 203.085 41.5085C202.598 41.2402 202.202 40.8768 201.896 40.4182C201.589 39.9548 201.436 39.3573 201.436 38.6256C201.436 37.8402 201.618 37.1646 201.983 36.5987C202.353 36.0378 202.873 35.6036 203.544 35.2963C204.216 34.989 205.021 34.8353 205.959 34.8353C206.947 34.8353 207.817 35.0109 208.571 35.3621C209.33 35.7085 209.965 36.2329 210.475 36.9353L208.688 38.728C208.333 38.2841 207.924 37.9499 207.462 37.7256C207.005 37.506 206.477 37.3963 205.879 37.3963C205.32 37.3963 204.887 37.4817 204.58 37.6524C204.274 37.8231 204.121 38.0695 204.121 38.3914C204.121 38.7329 204.274 38.9987 204.58 39.189C204.887 39.3743 205.281 39.5353 205.762 39.6719C206.249 39.8085 206.759 39.9597 207.294 40.1256C207.834 40.2865 208.345 40.5085 208.826 40.7914C209.313 41.0695 209.709 41.4451 210.016 41.9182C210.322 42.3865 210.475 42.9963 210.475 43.7475C210.475 44.9426 210.059 45.889 209.228 46.5865C208.391 47.289 207.258 47.6402 205.828 47.6402Z" fill="black"/>
</svg>
