<svg width="324" height="76" viewBox="0 0 324 76" fill="none" xmlns="http://www.w3.org/2000/svg">
<rect width="324" height="76" rx="12" fill="white"/>
<path d="M71.1667 50.6667H68.5C67.7636 50.6667 67.1667 51.2637 67.1667 52.0001V56.0001C67.1667 56.7365 67.7636 57.3334 68.5 57.3334H71.1667C71.9031 57.3334 72.5 56.7365 72.5 56.0001V52.0001C72.5 51.2637 71.9031 50.6667 71.1667 50.6667Z" fill="#BDDBFF"/>
<path d="M48.5 50.6667H45.8333C45.097 50.6667 44.5 51.2637 44.5 52.0001V56.0001C44.5 56.7365 45.097 57.3334 45.8333 57.3334H48.5C49.2364 57.3334 49.8333 56.7365 49.8333 56.0001V52.0001C49.8333 51.2637 49.2364 50.6667 48.5 50.6667Z" fill="#BDDBFF"/>
<path d="M40.5 28C40.3232 28 40.1536 27.9298 40.0286 27.8047C39.9036 27.6797 39.8333 27.5101 39.8333 27.3333V24C39.8338 23.4697 40.0447 22.9613 40.4197 22.5864C40.7946 22.2114 41.303 22.0005 41.8333 22H43.1666C43.3435 22 43.513 22.0702 43.6381 22.1953C43.7631 22.3203 43.8333 22.4899 43.8333 22.6667C43.8333 22.8435 43.7631 23.013 43.6381 23.1381C43.513 23.2631 43.3435 23.3333 43.1666 23.3333H41.8333C41.6565 23.3333 41.4869 23.4036 41.3619 23.5286C41.2369 23.6536 41.1666 23.8232 41.1666 24V27.3333C41.1666 27.5101 41.0964 27.6797 40.9714 27.8047C40.8464 27.9298 40.6768 28 40.5 28ZM76.5 28C76.3232 28 76.1536 27.9298 76.0286 27.8047C75.9035 27.6797 75.8333 27.5101 75.8333 27.3333V24C75.8333 23.8232 75.7631 23.6536 75.638 23.5286C75.513 23.4036 75.3435 23.3333 75.1666 23.3333H73.8333C73.6565 23.3333 73.4869 23.2631 73.3619 23.1381C73.2369 23.013 73.1666 22.8435 73.1666 22.6667C73.1666 22.4899 73.2369 22.3203 73.3619 22.1953C73.4869 22.0702 73.6565 22 73.8333 22H75.1666C75.6969 22.0005 76.2053 22.2114 76.5803 22.5864C76.9552 22.9613 77.1661 23.4697 77.1666 24V27.3333C77.1666 27.5101 77.0964 27.6797 76.9714 27.8047C76.8464 27.9298 76.6768 28 76.5 28Z" fill="#44546C"/>
<path d="M43.1667 50.6667C43.1667 51.374 43.4476 52.0523 43.9477 52.5524C44.4478 53.0525 45.1261 53.3334 45.8334 53.3334H71.1667C71.8739 53.3334 72.5522 53.0525 73.0523 52.5524C73.5524 52.0523 73.8334 51.374 73.8334 50.6667V44.6667H43.1667V50.6667ZM71.1667 18.6667H45.8334C45.1261 18.6667 44.4478 18.9477 43.9477 19.4478C43.4476 19.9479 43.1667 20.6262 43.1667 21.3334V24.0001H73.8334V21.3334C73.8334 20.6262 73.5524 19.9479 73.0523 19.4478C72.5522 18.9477 71.8739 18.6667 71.1667 18.6667Z" fill="#BDDBFF"/>
<path d="M69.8333 47.3333H67.1666C66.4303 47.3333 65.8333 47.9302 65.8333 48.6666V49.3333C65.8333 50.0696 66.4303 50.6666 67.1666 50.6666H69.8333C70.5697 50.6666 71.1666 50.0696 71.1666 49.3333V48.6666C71.1666 47.9302 70.5697 47.3333 69.8333 47.3333Z" fill="white"/>
<path d="M49.8333 47.3333H47.1666C46.4303 47.3333 45.8333 47.9302 45.8333 48.6666V49.3333C45.8333 50.0696 46.4303 50.6666 47.1666 50.6666H49.8333C50.5697 50.6666 51.1666 50.0696 51.1666 49.3333V48.6666C51.1666 47.9302 50.5697 47.3333 49.8333 47.3333Z" fill="white"/>
<path d="M62.5 47.3333H54.5C54.1319 47.3333 53.8334 47.6317 53.8334 47.9999V49.9999C53.8334 50.3681 54.1319 50.6666 54.5 50.6666H62.5C62.8682 50.6666 63.1667 50.3681 63.1667 49.9999V47.9999C63.1667 47.6317 62.8682 47.3333 62.5 47.3333Z" fill="white"/>
<path d="M40.5 27.3333H43.1667V32.6666H40.5C40.1464 32.6666 39.8073 32.5261 39.5572 32.2761C39.3072 32.026 39.1667 31.6869 39.1667 31.3333V28.6666C39.1667 28.313 39.3072 27.9738 39.5572 27.7238C39.8073 27.4737 40.1464 27.3333 40.5 27.3333ZM76.5 32.6666H73.8334V27.3333H76.5C76.8536 27.3333 77.1928 27.4737 77.4428 27.7238C77.6929 27.9738 77.8334 28.313 77.8334 28.6666V31.3333C77.8334 31.6869 77.6929 32.026 77.4428 32.2761C77.1928 32.5261 76.8536 32.6666 76.5 32.6666Z" fill="#BDDBFF"/>
<path d="M62.5 21.3335H54.5C54.1319 21.3335 53.8334 21.632 53.8334 22.0002V23.3335C53.8334 23.7017 54.1319 24.0002 54.5 24.0002H62.5C62.8682 24.0002 63.1667 23.7017 63.1667 23.3335V22.0002C63.1667 21.632 62.8682 21.3335 62.5 21.3335Z" fill="white"/>
<path d="M43.1667 24H58.5007V44.6667H43.1667V24Z" fill="white"/>
<path d="M58.5007 24H73.834V44.6667H58.5007V24Z" fill="white"/>
<path d="M47.1667 33.9999C47.0348 33.9999 46.906 33.9608 46.7964 33.8875C46.6868 33.8143 46.6013 33.7102 46.5509 33.5884C46.5004 33.4666 46.4872 33.3326 46.5129 33.2033C46.5387 33.074 46.6021 32.9552 46.6953 32.8619L50.6953 28.8619C50.8211 28.7405 50.9895 28.6733 51.1643 28.6748C51.3391 28.6763 51.5063 28.7465 51.6299 28.8701C51.7535 28.9937 51.8236 29.1609 51.8251 29.3357C51.8266 29.5105 51.7594 29.6789 51.638 29.8046L47.638 33.8046C47.5762 33.8666 47.5027 33.9158 47.4218 33.9493C47.3409 33.9828 47.2542 34 47.1667 33.9999ZM45.8333 39.9999C45.7015 39.9999 45.5726 39.9608 45.463 39.8875C45.3534 39.8143 45.268 39.7102 45.2175 39.5884C45.1671 39.4666 45.1539 39.3326 45.1796 39.2033C45.2053 39.074 45.2688 38.9552 45.362 38.8619L55.362 28.8619C55.4877 28.7405 55.6561 28.6733 55.8309 28.6748C56.0057 28.6763 56.1729 28.7465 56.2965 28.8701C56.4202 28.9937 56.4903 29.1609 56.4918 29.3357C56.4933 29.5105 56.4261 29.6789 56.3047 29.8046L46.3047 39.8046C46.2428 39.8666 46.1694 39.9158 46.0885 39.9493C46.0076 39.9828 45.9209 40 45.8333 39.9999ZM62.5 33.9999C62.3682 33.9999 62.2393 33.9608 62.1297 33.8875C62.0201 33.8143 61.9347 33.7102 61.8842 33.5884C61.8338 33.4666 61.8206 33.3326 61.8463 33.2033C61.872 33.074 61.9355 32.9552 62.0287 32.8619L66.0287 28.8619C66.1544 28.7405 66.3228 28.6733 66.4976 28.6748C66.6724 28.6763 66.8396 28.7465 66.9632 28.8701C67.0868 28.9937 67.1569 29.1609 67.1585 29.3357C67.16 29.5105 67.0928 29.6789 66.9713 29.8046L62.9713 33.8046C62.9095 33.8666 62.836 33.9158 62.7552 33.9493C62.6743 33.9828 62.5876 34 62.5 33.9999ZM61.1667 39.9999C61.0348 39.9999 60.906 39.9608 60.7964 39.8875C60.6868 39.8143 60.6013 39.7102 60.5509 39.5884C60.5004 39.4666 60.4872 39.3326 60.5129 39.2033C60.5387 39.074 60.6021 38.9552 60.6953 38.8619L70.6953 28.8619C70.8211 28.7405 70.9895 28.6733 71.1643 28.6748C71.3391 28.6763 71.5063 28.7465 71.6299 28.8701C71.7535 28.9937 71.8236 29.1609 71.8251 29.3357C71.8266 29.5105 71.7594 29.6789 71.638 29.8046L61.638 39.8046C61.5762 39.8666 61.5027 39.9158 61.4218 39.9493C61.3409 39.9828 61.2542 40 61.1667 39.9999Z" fill="#1447E6"/>
<path d="M65.8333 19.3333H66.5C66.6768 19.3333 66.8463 19.2631 66.9714 19.1381C67.0964 19.013 67.1666 18.8435 67.1666 18.6667C67.1666 18.4899 67.0964 18.3203 66.9714 18.1953C66.8463 18.0702 66.6768 18 66.5 18H65.8333C65.6565 18 65.4869 18.0702 65.3619 18.1953C65.2369 18.3203 65.1666 18.4899 65.1666 18.6667C65.1666 18.8435 65.2369 19.013 65.3619 19.1381C65.4869 19.2631 65.6565 19.3333 65.8333 19.3333ZM49.1666 44C48.9898 44 48.8202 44.0702 48.6952 44.1953C48.5702 44.3203 48.5 44.4899 48.5 44.6667C48.5 44.8435 48.5702 45.0131 48.6952 45.1381C48.8202 45.2631 48.9898 45.3333 49.1666 45.3333H49.8333C50.0101 45.3333 50.1797 45.2631 50.3047 45.1381C50.4297 45.0131 50.5 44.8435 50.5 44.6667C50.5 44.4899 50.4297 44.3203 50.3047 44.1953C50.1797 44.0702 50.0101 44 49.8333 44H49.1666ZM69.8333 46.6667H67.1666C66.6364 46.6672 66.128 46.8781 65.753 47.253C65.378 47.628 65.1672 48.1364 65.1666 48.6667V49.3333C65.1672 49.8636 65.378 50.372 65.753 50.747C66.128 51.1219 66.6364 51.3328 67.1666 51.3333H69.8333C70.3636 51.3328 70.872 51.1219 71.2469 50.747C71.6219 50.372 71.8328 49.8636 71.8333 49.3333V48.6667C71.8328 48.1364 71.6219 47.628 71.2469 47.253C70.872 46.8781 70.3636 46.6672 69.8333 46.6667ZM70.5 49.3333C70.5 49.5101 70.4297 49.6797 70.3047 49.8047C70.1797 49.9298 70.0101 50 69.8333 50H67.1666C66.9898 50 66.8202 49.9298 66.6952 49.8047C66.5702 49.6797 66.5 49.5101 66.5 49.3333V48.6667C66.5 48.4899 66.5702 48.3203 66.6952 48.1953C66.8202 48.0702 66.9898 48 67.1666 48H69.8333C70.0101 48 70.1797 48.0702 70.3047 48.1953C70.4297 48.3203 70.5 48.4899 70.5 48.6667V49.3333ZM49.8333 46.6667H47.1666C46.6364 46.6672 46.128 46.8781 45.753 47.253C45.378 47.628 45.1672 48.1364 45.1666 48.6667V49.3333C45.1672 49.8636 45.378 50.372 45.753 50.747C46.128 51.1219 46.6364 51.3328 47.1666 51.3333H49.8333C50.3636 51.3328 50.872 51.1219 51.2469 50.747C51.6219 50.372 51.8328 49.8636 51.8333 49.3333V48.6667C51.8328 48.1364 51.6219 47.628 51.2469 47.253C50.872 46.8781 50.3636 46.6672 49.8333 46.6667ZM50.5 49.3333C50.5 49.5101 50.4297 49.6797 50.3047 49.8047C50.1797 49.9298 50.0101 50 49.8333 50H47.1666C46.9898 50 46.8202 49.9298 46.6952 49.8047C46.5702 49.6797 46.5 49.5101 46.5 49.3333V48.6667C46.5 48.4899 46.5702 48.3203 46.6952 48.1953C46.8202 48.0702 46.9898 48 47.1666 48H49.8333C50.0101 48 50.1797 48.0702 50.3047 48.1953C50.4297 48.3203 50.5 48.4899 50.5 48.6667V49.3333ZM62.5 46.6667H54.5C54.1464 46.667 53.8075 46.8076 53.5575 47.0576C53.3076 47.3076 53.167 47.6465 53.1666 48V50C53.167 50.3535 53.3076 50.6925 53.5575 50.9424C53.8075 51.1924 54.1464 51.333 54.5 51.3333H62.5C62.8535 51.333 63.1924 51.1924 63.4424 50.9424C63.6924 50.6925 63.8329 50.3535 63.8333 50V48C63.8329 47.6465 63.6924 47.3076 63.4424 47.0576C63.1924 46.8076 62.8535 46.667 62.5 46.6667ZM54.5 50V48H62.5L62.5006 50H54.5Z" fill="#1447E6"/>
<path d="M77.1667 26.7893V24C77.1661 23.4697 76.9553 22.9613 76.5803 22.5864C76.2053 22.2114 75.6969 22.0005 75.1667 22H74.5V21.3333C74.4989 20.4496 74.1474 19.6024 73.5225 18.9775C72.8976 18.3526 72.0504 18.0011 71.1667 18H68.5C68.3232 18 68.1536 18.0702 68.0286 18.1953C67.9036 18.3203 67.8333 18.4899 67.8333 18.6667C67.8333 18.8435 67.9036 19.013 68.0286 19.1381C68.1536 19.2631 68.3232 19.3333 68.5 19.3333H71.1667C71.6969 19.3339 72.2053 19.5447 72.5803 19.9197C72.9553 20.2947 73.1661 20.8031 73.1667 21.3333V23.3333H63.8333V22C63.833 21.6465 63.6924 21.3076 63.4424 21.0576C63.1924 20.8076 62.8535 20.667 62.5 20.6667H54.5C54.1465 20.667 53.8076 20.8076 53.5576 21.0576C53.3076 21.3076 53.167 21.6465 53.1667 22V23.3333H43.8333V21.3333C43.8339 20.8031 44.0447 20.2947 44.4197 19.9197C44.7947 19.5447 45.3031 19.3339 45.8333 19.3333H63.8333C64.0101 19.3333 64.1797 19.2631 64.3047 19.1381C64.4298 19.013 64.5 18.8435 64.5 18.6667C64.5 18.4899 64.4298 18.3203 64.3047 18.1953C64.1797 18.0702 64.0101 18 63.8333 18H45.8333C44.9496 18.0011 44.1024 18.3526 43.4775 18.9775C42.8526 19.6024 42.5011 20.4496 42.5 21.3333V22H41.8333C41.3031 22.0005 40.7947 22.2114 40.4197 22.5864C40.0447 22.9613 39.8339 23.4697 39.8333 24V26.7893C39.4445 26.9263 39.1075 27.1803 38.8688 27.5164C38.63 27.8526 38.5012 28.2544 38.5 28.6667V31.3333C38.5005 31.8636 38.7114 32.372 39.0864 32.747C39.4613 33.1219 39.9697 33.3328 40.5 33.3333H42.5V50.6667C42.5015 51.1821 42.623 51.6901 42.8549 52.1504C43.0868 52.6107 43.4227 53.0107 43.836 53.3187C43.836 53.324 43.8333 53.328 43.8333 53.3333V56C43.8339 56.5303 44.0447 57.0387 44.4197 57.4136C44.7947 57.7886 45.3031 57.9995 45.8333 58H48.5C49.0303 57.9995 49.5387 57.7886 49.9136 57.4136C50.2886 57.0387 50.4995 56.5303 50.5 56V54H66.5V56C66.5005 56.5303 66.7114 57.0387 67.0864 57.4136C67.4613 57.7886 67.9697 57.9995 68.5 58H71.1667C71.6969 57.9995 72.2053 57.7886 72.5803 57.4136C72.9553 57.0387 73.1661 56.5303 73.1667 56V53.3333C73.1667 53.328 73.164 53.324 73.164 53.3187C73.5773 53.0107 73.9132 52.6107 74.1451 52.1504C74.377 51.6901 74.4985 51.1821 74.5 50.6667V33.3333H76.5C77.0303 33.3328 77.5387 33.1219 77.9136 32.747C78.2886 32.372 78.4995 31.8636 78.5 31.3333V28.6667C78.4988 28.2544 78.37 27.8526 78.1312 27.5164C77.8925 27.1803 77.5555 26.9263 77.1667 26.7893ZM75.1667 23.3333C75.3435 23.3333 75.513 23.4036 75.6381 23.5286C75.7631 23.6536 75.8333 23.8232 75.8333 24V26.6667H74.5V23.3333H75.1667ZM73.1667 44H59.1673V24.6667H73.1667V44ZM54.5 22H62.5V23.3333H54.5V22ZM41.8333 23.3333H42.5V26.6667H41.1667V24C41.1667 23.8232 41.2369 23.6536 41.3619 23.5286C41.487 23.4036 41.6565 23.3333 41.8333 23.3333ZM40.5 32C40.3232 32 40.1536 31.9298 40.0286 31.8047C39.9036 31.6797 39.8333 31.5101 39.8333 31.3333V28.6667C39.8333 28.4899 39.9036 28.3203 40.0286 28.1953C40.1536 28.0702 40.3232 28 40.5 28H42.5V32H40.5ZM49.1667 56C49.1667 56.1768 49.0964 56.3464 48.9714 56.4714C48.8464 56.5964 48.6768 56.6667 48.5 56.6667H45.8333C45.6565 56.6667 45.487 56.5964 45.3619 56.4714C45.2369 56.3464 45.1667 56.1768 45.1667 56V53.9327C45.3861 53.9774 45.6094 54 45.8333 54H49.1667V56ZM71.8333 56C71.8333 56.1768 71.7631 56.3464 71.6381 56.4714C71.513 56.5964 71.3435 56.6667 71.1667 56.6667H68.5C68.3232 56.6667 68.1536 56.5964 68.0286 56.4714C67.9036 56.3464 67.8333 56.1768 67.8333 56V54H71.1667C71.3906 54 71.6139 53.9774 71.8333 53.9327V56ZM71.1667 52.6667H45.8333C45.3031 52.6661 44.7947 52.4553 44.4197 52.0803C44.0447 51.7053 43.8339 51.1969 43.8333 50.6667V45.3333H47.1667C47.3435 45.3333 47.513 45.2631 47.6381 45.1381C47.7631 45.013 47.8333 44.8435 47.8333 44.6667C47.8333 44.4899 47.7631 44.3203 47.6381 44.1953C47.513 44.0702 47.3435 44 47.1667 44H43.8333V24.6667H57.834V44H51.8333C51.6565 44 51.487 44.0702 51.3619 44.1953C51.2369 44.3203 51.1667 44.4899 51.1667 44.6667C51.1667 44.8435 51.2369 45.013 51.3619 45.1381C51.487 45.2631 51.6565 45.3333 51.8333 45.3333H73.1667V50.6667C73.1661 51.1969 72.9553 51.7053 72.5803 52.0803C72.2053 52.4553 71.6969 52.6661 71.1667 52.6667ZM77.1667 31.3333C77.1667 31.5101 77.0964 31.6797 76.9714 31.8047C76.8464 31.9298 76.6768 32 76.5 32H74.5V28H76.5C76.6768 28 76.8464 28.0702 76.9714 28.1953C77.0964 28.3203 77.1667 28.4899 77.1667 28.6667V31.3333Z" fill="#1447E6"/>
<path d="M104.738 52.0356H99.3314V24.9107H104.738V52.0356ZM113.57 29.0898H90.5V24.3137H113.57V29.0898ZM117.197 52.0356H112.026V32.9873H117.197V52.0356ZM117.197 41.5146L115.181 40.1628C115.421 37.8273 116.104 35.9837 117.231 34.632C118.365 33.2727 119.994 32.5931 122.119 32.5931C123.043 32.5931 123.873 32.747 124.609 33.0549C125.345 33.3553 126.013 33.8472 126.614 34.5306L123.381 38.2366C123.096 37.9212 122.747 37.6846 122.334 37.5269C121.928 37.3692 121.462 37.2904 120.937 37.2904C119.833 37.2904 118.932 37.6396 118.233 38.338C117.542 39.0289 117.197 40.0877 117.197 41.5146ZM135.096 52.4299C133.361 52.4299 131.796 51.9981 130.399 51.1345C129.01 50.2633 127.921 49.0768 127.132 47.5749C126.336 46.0805 125.938 44.3983 125.938 42.5284C125.938 40.6359 126.336 38.9425 127.132 37.4481C127.921 35.9462 129.01 34.7634 130.399 33.8998C131.796 33.0286 133.361 32.5931 135.096 32.5931C136.463 32.5931 137.683 32.8709 138.757 33.4267C139.839 33.9749 140.698 34.7446 141.337 35.7359C141.983 36.7196 142.332 37.8273 142.384 39.0589V45.919C142.332 47.1806 141.983 48.2996 141.337 49.2758C140.698 50.2446 139.839 51.0143 138.757 51.5851C137.683 52.1483 136.463 52.4299 135.096 52.4299ZM136.042 47.6537C137.484 47.6537 138.652 47.1769 139.546 46.2231C140.439 45.2619 140.886 44.0191 140.886 42.4946C140.886 41.4958 140.683 40.6097 140.278 39.8362C139.872 39.0552 139.305 38.4506 138.577 38.0226C137.856 37.587 137.011 37.3692 136.042 37.3692C135.096 37.3692 134.259 37.587 133.53 38.0226C132.81 38.4506 132.246 39.0552 131.841 39.8362C131.435 40.6097 131.232 41.4958 131.232 42.4946C131.232 43.5159 131.435 44.4171 131.841 45.1981C132.246 45.9716 132.81 46.5761 133.53 47.0117C134.259 47.4397 135.096 47.6537 136.042 47.6537ZM145.741 52.0356H140.616V46.9103L141.438 42.258L140.616 37.6846V32.9873H145.741V52.0356ZM167.504 52.0356H162.334V41.1091C162.334 39.9826 161.977 39.0627 161.264 38.3492C160.558 37.6433 159.642 37.2904 158.515 37.2904C157.779 37.2904 157.122 37.4481 156.544 37.7635C155.966 38.0789 155.511 38.5257 155.181 39.104C154.85 39.6822 154.685 40.3506 154.685 41.1091L152.68 40.084C152.68 38.5896 152.999 37.2829 153.638 36.1639C154.283 35.045 155.177 34.1701 156.319 33.5393C157.468 32.9085 158.763 32.5931 160.205 32.5931C161.602 32.5931 162.852 32.9423 163.956 33.6407C165.06 34.3391 165.927 35.2478 166.558 36.3667C167.189 37.4781 167.504 38.6797 167.504 39.9713V52.0356ZM154.685 52.0356H149.526V32.9873H154.685V52.0356ZM177.44 52.4749C176.358 52.4749 175.299 52.3285 174.263 52.0356C173.227 51.7428 172.273 51.341 171.402 50.8303C170.538 50.3197 169.787 49.6964 169.149 48.9604L172.235 45.8401C172.889 46.5761 173.651 47.1318 174.522 47.5073C175.386 47.8678 176.343 48.048 177.394 48.048C178.236 48.048 178.874 47.9316 179.309 47.6988C179.745 47.466 179.963 47.1093 179.963 46.6287C179.963 46.103 179.73 45.6975 179.264 45.4121C178.806 45.1192 178.209 44.8752 177.473 44.6799C176.737 44.4847 175.968 44.2631 175.164 44.0153C174.368 43.76 173.602 43.4295 172.866 43.024C172.13 42.6185 171.529 42.0553 171.064 41.3343C170.606 40.6059 170.377 39.6634 170.377 38.5069C170.377 37.2979 170.673 36.2465 171.267 35.3529C171.86 34.4592 172.708 33.7646 173.812 33.269C174.916 32.7658 176.215 32.5142 177.71 32.5142C179.287 32.5142 180.714 32.7921 181.99 33.3478C183.267 33.896 184.326 34.7221 185.167 35.826L182.047 38.9463C181.468 38.2328 180.819 37.7184 180.098 37.403C179.37 37.0876 178.589 36.9299 177.755 36.9299C176.989 36.9299 176.403 37.0501 175.998 37.2904C175.592 37.5232 175.389 37.8499 175.389 38.2704C175.389 38.7435 175.618 39.1115 176.077 39.3743C176.535 39.6372 177.132 39.87 177.868 40.0727C178.604 40.268 179.373 40.4895 180.177 40.7373C180.98 40.9851 181.743 41.3343 182.463 41.7849C183.184 42.228 183.774 42.8213 184.232 43.5647C184.69 44.2932 184.919 45.2356 184.919 46.3921C184.919 48.262 184.251 49.7414 182.914 50.8303C181.577 51.9267 179.752 52.4749 177.44 52.4749ZM192.816 52.0356H187.611V32.9873H192.816V52.0356ZM190.213 29.9121C189.372 29.9121 188.674 29.6305 188.118 29.0673C187.57 28.5041 187.296 27.8019 187.296 26.9608C187.296 26.1423 187.57 25.4439 188.118 24.8656C188.674 24.2874 189.372 23.9983 190.213 23.9983C191.077 23.9983 191.779 24.2874 192.32 24.8656C192.861 25.4439 193.131 26.1423 193.131 26.9608C193.131 27.8019 192.861 28.5041 192.32 29.0673C191.779 29.6305 191.077 29.9121 190.213 29.9121ZM204.564 52.0356H199.394V25.0684H204.564V52.0356ZM209.014 37.5269H194.945V32.9873H209.014V37.5269ZM223.962 52.0356H218.6V24.3137H223.962V52.0356ZM241.343 52.0356H235.981V24.3137H241.343V52.0356ZM237.479 40.084H221.991V35.3529H237.479V40.084ZM253.802 52.4299C252.119 52.4299 250.629 52.0769 249.33 51.371C248.03 50.6576 247.013 49.6701 246.277 48.4085C245.541 47.1468 245.173 45.6862 245.173 44.0266V32.9873H250.377V43.9139C250.377 44.7024 250.509 45.3783 250.771 45.9415C251.034 46.5048 251.429 46.9328 251.954 47.2257C252.48 47.511 253.096 47.6537 253.802 47.6537C254.883 47.6537 255.724 47.3271 256.325 46.6737C256.933 46.0129 257.237 45.0929 257.237 43.9139V32.9873H262.396V44.0266C262.396 45.7087 262.036 47.1806 261.315 48.4422C260.594 49.7114 259.58 50.6914 258.274 51.3823C256.974 52.0807 255.484 52.4299 253.802 52.4299ZM276.274 52.4299C274.908 52.4299 273.672 52.1408 272.568 51.5625C271.464 50.9843 270.586 50.1958 269.932 49.197C269.272 48.1982 268.915 47.0792 268.862 45.8401V39.0589C268.915 37.8273 269.275 36.7196 269.944 35.7359C270.62 34.7446 271.509 33.9749 272.613 33.4267C273.717 32.8709 274.938 32.5931 276.274 32.5931C278.039 32.5931 279.616 33.0286 281.005 33.8998C282.402 34.7634 283.499 35.9462 284.295 37.4481C285.098 38.9425 285.5 40.6359 285.5 42.5284C285.5 44.3983 285.098 46.0805 284.295 47.5749C283.499 49.0768 282.402 50.2633 281.005 51.1345C279.616 51.9981 278.039 52.4299 276.274 52.4299ZM270.834 52.0356H265.708V23.5251H270.879V37.6846L270.011 42.258L270.834 46.9103V52.0356ZM275.407 47.6537C276.353 47.6537 277.187 47.4397 277.908 47.0117C278.636 46.5761 279.203 45.9716 279.609 45.1981C280.014 44.4171 280.217 43.5159 280.217 42.4946C280.217 41.4958 280.014 40.6097 279.609 39.8362C279.203 39.0552 278.632 38.4506 277.896 38.0226C277.161 37.587 276.319 37.3692 275.373 37.3692C274.427 37.3692 273.59 37.587 272.861 38.0226C272.14 38.4506 271.577 39.0552 271.172 39.8362C270.766 40.6097 270.563 41.4958 270.563 42.4946C270.563 43.5159 270.766 44.4171 271.172 45.1981C271.577 45.9716 272.148 46.5761 272.884 47.0117C273.62 47.4397 274.461 47.6537 275.407 47.6537Z" fill="#111111"/>
</svg>
