<svg width="188" height="30" viewBox="0 0 188 30" fill="none" xmlns="http://www.w3.org/2000/svg">
<path fill-rule="evenodd" clip-rule="evenodd" d="M12.4025 0.365967C12.8054 0.365967 13.1321 0.693563 13.1321 1.09767V6.50973C13.1321 6.67268 13.3285 6.75428 13.4434 6.63907L19.2706 0.794702C19.5442 0.52031 19.9153 0.366025 20.3022 0.365967H26.6916C26.885 0.365996 27.0706 0.443138 27.2074 0.580334L29.3961 2.77546C29.6809 3.06119 29.6809 3.5244 29.3961 3.81014L26.5755 6.63907C26.4606 6.75431 26.5419 6.95131 26.7044 6.95133H32.528C32.7215 6.95136 32.9071 7.02851 33.0439 7.1657L35.2326 9.36085C35.5174 9.64658 35.5174 10.1097 35.2326 10.3955L32.3585 13.278C32.2161 13.4209 32.2161 13.6525 32.3585 13.7954L34.7167 16.1605C35.3773 16.8231 35.7484 17.7217 35.7484 18.6586C35.7484 19.5956 35.3773 20.4942 34.7167 21.1568L26.6916 29.2056C26.418 29.4799 26.0469 29.6342 25.66 29.6343H23.3459C22.9429 29.6343 22.6163 29.3067 22.6163 28.9026V23.4905C22.6163 23.3275 22.4199 23.2459 22.3049 23.3612L16.4777 29.2056C16.2042 29.4799 15.833 29.6342 15.4461 29.6343H9.05682C8.86334 29.6343 8.67774 29.5571 8.54094 29.4199L6.35229 27.2247C6.06746 26.939 6.06746 26.4758 6.35229 26.1901L9.17289 23.3612C9.28779 23.2459 9.20645 23.0489 9.04397 23.0489H3.22032C3.02687 23.0489 2.84129 22.9717 2.7045 22.8345L0.515821 20.6394C0.230983 20.3537 0.230983 19.8905 0.515821 19.6047L3.38988 16.7222C3.5323 16.5794 3.5323 16.3477 3.38988 16.2049L1.03164 13.8397C0.371092 13.1771 0 12.2785 0 11.3416C0 10.4046 0.371091 9.50602 1.03164 8.84346L9.05682 0.794702C9.3304 0.52031 9.70153 0.366025 10.0884 0.365967H12.4025ZM14.6432 6.95133C13.6757 6.95133 12.7474 7.33706 12.0634 8.02314L4.27049 15.839C4.04074 16.0695 4.20346 16.4635 4.52839 16.4635H15.1697C15.4946 16.4636 15.6573 16.8576 15.4276 17.088L10.1069 22.4244C9.8772 22.6549 10.0399 23.0488 10.3648 23.0489H21.1052C22.0727 23.0489 23.0009 22.6631 23.685 21.9771L31.4779 14.1612C31.6933 13.9452 31.5638 13.5852 31.2791 13.541L31.22 13.5367H20.5787C20.2537 13.5367 20.091 13.1427 20.3208 12.9122L25.6414 7.57586C25.8712 7.34539 25.7085 6.95138 25.3835 6.95133H14.6432Z" fill="#1447E6"/>
<path d="M51.4266 24.6402C50.0113 24.6402 48.8099 24.3841 47.8226 23.8719C46.8353 23.3597 45.9501 22.6085 45.167 21.6182L47.1587 19.6207C47.6548 20.3378 48.2409 20.8963 48.9169 21.2963C49.6027 21.7012 50.4733 21.9036 51.5287 21.9036C52.5161 21.9036 53.3016 21.6987 53.8852 21.289C54.4737 20.8792 54.768 20.3134 54.768 19.5914C54.768 18.9963 54.6148 18.5109 54.3084 18.1353C54.0019 17.7597 53.5983 17.4475 53.0973 17.1987C52.5963 16.9499 52.0419 16.728 51.4339 16.5329C50.8308 16.3378 50.2277 16.1158 49.6246 15.867C49.0215 15.6182 48.467 15.306 47.9612 14.9304C47.4602 14.5548 47.0565 14.0695 46.7501 13.4743C46.4437 12.8743 46.2905 12.1134 46.2905 11.1914C46.2905 10.1329 46.5507 9.23287 47.0711 8.49141C47.5916 7.74995 48.2944 7.18165 49.1796 6.78653C50.0648 6.39629 51.0521 6.20117 52.1416 6.20117C53.3137 6.20117 54.3643 6.43043 55.2933 6.88897C56.2222 7.35239 56.9761 7.94263 57.5549 8.6597L55.5632 10.6573C55.0525 10.0768 54.5199 9.64507 53.9655 9.36214C53.411 9.07921 52.7763 8.93775 52.0613 8.93775C51.1761 8.93775 50.483 9.11824 49.9821 9.47921C49.4811 9.83531 49.2306 10.3378 49.2306 10.9865C49.2306 11.5329 49.3838 11.9743 49.6903 12.3109C49.9918 12.6426 50.3955 12.9231 50.9013 13.1524C51.4023 13.3817 51.9543 13.5987 52.5574 13.8036C53.1654 14.0085 53.7709 14.2402 54.374 14.4987C54.9771 14.7524 55.5292 15.0817 56.0301 15.4865C56.5359 15.8865 56.9421 16.4012 57.2485 17.0304C57.5549 17.6646 57.7081 18.4597 57.7081 19.4158C57.7081 21.0207 57.1415 22.2938 56.0082 23.2353C54.875 24.1719 53.3478 24.6402 51.4266 24.6402ZM65.2372 24.6402C64.0309 24.6402 62.9366 24.3597 61.9541 23.7987C60.9765 23.2329 60.2081 22.4621 59.6487 21.4865C59.0845 20.5158 58.8024 19.4329 58.8024 18.2378C58.8024 17.0231 59.0845 15.9353 59.6487 14.9743C60.2081 14.0085 60.9765 13.2426 61.9541 12.6768C62.9366 12.1158 64.0309 11.8353 65.2372 11.8353C66.1904 11.8353 67.0805 12.0182 67.9073 12.3841C68.7342 12.7499 69.437 13.2743 70.0158 13.9573L68.1773 15.8304C67.8174 15.4012 67.3869 15.0817 66.886 14.8719C66.385 14.6573 65.8354 14.5499 65.2372 14.5499C64.5368 14.5499 63.9191 14.7085 63.3841 15.0256C62.8491 15.3378 62.4332 15.767 62.1365 16.3134C61.835 16.8597 61.6842 17.5012 61.6842 18.2378C61.6842 18.9548 61.835 19.5914 62.1365 20.1475C62.4332 20.6987 62.8491 21.1329 63.3841 21.4499C63.9191 21.767 64.5368 21.9256 65.2372 21.9256C65.8354 21.9256 66.385 21.8182 66.886 21.6036C67.3869 21.3938 67.8174 21.0743 68.1773 20.6451L70.0158 22.5182C69.437 23.1963 68.7342 23.7207 67.9073 24.0914C67.0805 24.4573 66.1904 24.6402 65.2372 24.6402ZM82.7247 24.3841H79.9232V17.2865C79.9232 16.467 79.663 15.7938 79.1425 15.267C78.6221 14.7353 77.9534 14.4695 77.1363 14.4695C76.5915 14.4695 76.1051 14.589 75.6771 14.828C75.254 15.067 74.9233 15.4012 74.6849 15.8304C74.4466 16.2548 74.3275 16.7402 74.3275 17.2865L73.2331 16.6719C73.2331 15.7353 73.435 14.9036 73.8387 14.1768C74.2472 13.4499 74.8138 12.8792 75.5385 12.4646C76.2632 12.0451 77.0755 11.8353 77.9753 11.8353C78.8945 11.8353 79.7116 12.0402 80.4266 12.4499C81.1415 12.8597 81.7033 13.428 82.1118 14.1548C82.5204 14.8768 82.7247 15.7158 82.7247 16.6719V24.3841ZM74.3275 24.3841H71.5187V5.94507H74.3275V24.3841ZM90.6915 24.6402C89.4998 24.6402 88.4201 24.3548 87.4522 23.7841C86.4795 23.2085 85.7086 22.4353 85.1395 21.4646C84.5705 20.4938 84.2859 19.4085 84.2859 18.2085C84.2859 17.0134 84.5705 15.9377 85.1395 14.9817C85.7086 14.0256 86.4795 13.2621 87.4522 12.6914C88.4201 12.1207 89.4998 11.8353 90.6915 11.8353C91.9025 11.8353 92.992 12.1158 93.9599 12.6768C94.9326 13.2426 95.7035 14.0085 96.2726 14.9743C96.8416 15.9353 97.1262 17.0134 97.1262 18.2085C97.1262 19.4085 96.8416 20.4938 96.2726 21.4646C95.7035 22.4353 94.9326 23.2085 93.9599 23.7841C92.992 24.3548 91.9025 24.6402 90.6915 24.6402ZM90.6915 21.9256C91.3918 21.9256 92.0095 21.767 92.5445 21.4499C93.0796 21.1329 93.4978 20.6938 93.7994 20.1329C94.0961 19.5719 94.2444 18.9304 94.2444 18.2085C94.2444 17.4914 94.0912 16.8597 93.7848 16.3134C93.4784 15.767 93.0601 15.3378 92.5299 15.0256C92.0047 14.7085 91.3918 14.5499 90.6915 14.5499C90.0105 14.5499 89.4026 14.7085 88.8676 15.0256C88.3326 15.3378 87.9167 15.767 87.62 16.3134C87.3185 16.8597 87.1677 17.4914 87.1677 18.2085C87.1677 18.9304 87.3185 19.5719 87.62 20.1329C87.9167 20.6938 88.3326 21.1329 88.8676 21.4499C89.4026 21.767 90.0105 21.9256 90.6915 21.9256ZM101.752 24.3841H98.9428V5.94507H101.752V24.3841ZM109.485 24.6402C108.381 24.6402 107.381 24.3597 106.486 23.7987C105.591 23.2329 104.886 22.467 104.371 21.5012C103.85 20.5402 103.59 19.4597 103.59 18.2597C103.59 17.0499 103.85 15.9621 104.371 14.9963C104.886 14.0304 105.591 13.2621 106.486 12.6914C107.381 12.1207 108.381 11.8353 109.485 11.8353C110.424 11.8353 111.255 12.0353 111.98 12.4353C112.7 12.8353 113.274 13.3865 113.702 14.089C114.125 14.7865 114.336 15.5792 114.336 16.467V20.0085C114.336 20.8963 114.13 21.689 113.716 22.3865C113.298 23.0841 112.722 23.6353 111.987 24.0402C111.258 24.4402 110.424 24.6402 109.485 24.6402ZM109.945 21.9768C110.985 21.9768 111.824 21.6256 112.461 20.9231C113.099 20.2256 113.417 19.3304 113.417 18.2378C113.417 17.5012 113.274 16.8524 112.987 16.2914C112.695 15.7256 112.291 15.2865 111.776 14.9743C111.255 14.6573 110.645 14.4987 109.945 14.4987C109.264 14.4987 108.665 14.6573 108.15 14.9743C107.629 15.2865 107.221 15.7256 106.924 16.2914C106.623 16.8524 106.472 17.5012 106.472 18.2378C106.472 18.9743 106.623 19.6231 106.924 20.1841C107.221 20.7451 107.629 21.1841 108.15 21.5012C108.665 21.8182 109.264 21.9768 109.945 21.9768ZM116.051 24.3841H113.242V21.0768L113.724 18.0841L113.242 15.1134V12.0914H116.051V24.3841ZM121.464 24.3841H118.655V12.0914H121.464V24.3841ZM121.464 17.5499L120.494 17.0597C120.494 15.5036 120.839 14.2451 121.53 13.2841C122.216 12.3182 123.257 11.8353 124.652 11.8353C125.265 11.8353 125.82 11.9451 126.316 12.1646C126.807 12.389 127.267 12.7475 127.695 13.2402L125.856 15.1353C125.632 14.8963 125.384 14.7256 125.112 14.6231C124.84 14.5207 124.526 14.4695 124.171 14.4695C123.388 14.4695 122.741 14.7182 122.23 15.2158C121.72 15.7085 121.464 16.4865 121.464 17.5499ZM132.291 24.6402C131.61 24.6402 130.953 24.5499 130.321 24.3695C129.694 24.189 129.115 23.9329 128.585 23.6012C128.059 23.2695 127.6 22.8646 127.206 22.3865L128.993 20.5938C129.421 21.0914 129.913 21.4621 130.467 21.706C131.017 21.9548 131.642 22.0792 132.342 22.0792C132.969 22.0792 133.446 21.9841 133.772 21.7938C134.093 21.6085 134.253 21.3353 134.253 20.9743C134.253 20.5987 134.1 20.3109 133.794 20.1109C133.487 19.9012 133.093 19.7256 132.612 19.5841C132.126 19.4378 131.615 19.2865 131.08 19.1304C130.54 18.9792 130.029 18.7719 129.548 18.5085C129.061 18.2402 128.665 17.8768 128.359 17.4182C128.052 16.9548 127.899 16.3573 127.899 15.6256C127.899 14.8402 128.081 14.1646 128.446 13.5987C128.811 13.0378 129.331 12.6036 130.007 12.2963C130.679 11.989 131.481 11.8353 132.415 11.8353C133.402 11.8353 134.275 12.0109 135.034 12.3621C135.793 12.7085 136.427 13.2329 136.938 13.9353L135.151 15.728C134.791 15.2841 134.382 14.9499 133.925 14.7256C133.463 14.506 132.935 14.3963 132.342 14.3963C131.778 14.3963 131.342 14.4817 131.036 14.6524C130.73 14.8231 130.576 15.0695 130.576 15.3914C130.576 15.7329 130.73 15.9987 131.036 16.189C131.342 16.3743 131.739 16.5353 132.225 16.6719C132.712 16.8085 133.222 16.9597 133.757 17.1256C134.292 17.2865 134.803 17.5085 135.289 17.7914C135.776 18.0695 136.172 18.4451 136.479 18.9182C136.785 19.3865 136.938 19.9963 136.938 20.7475C136.938 21.9426 136.52 22.889 135.683 23.5865C134.852 24.289 133.721 24.6402 132.291 24.6402ZM145.773 17.6231H141.148V15.0621H145.62C146.233 15.0621 146.773 14.9378 147.24 14.689C147.706 14.4402 148.076 14.0914 148.348 13.6426C148.621 13.189 148.757 12.6548 148.757 12.0402C148.757 11.4256 148.621 10.8914 148.348 10.4378C148.076 9.98409 147.706 9.63531 147.24 9.39141C146.773 9.14263 146.233 9.01824 145.62 9.01824H141.148V6.45726H145.773C146.897 6.45726 147.906 6.68653 148.801 7.14507C149.691 7.60848 150.396 8.25726 150.917 9.09141C151.437 9.93043 151.697 10.9134 151.697 12.0402C151.697 13.167 151.437 14.1475 150.917 14.9817C150.396 15.8207 149.691 16.4695 148.801 16.928C147.906 17.3914 146.897 17.6231 145.773 17.6231ZM142.067 24.3841H139.134V6.45726H142.067V24.3841ZM158.183 24.6402C157.079 24.6402 156.079 24.3597 155.184 23.7987C154.29 23.2329 153.582 22.467 153.061 21.5012C152.546 20.5402 152.288 19.4597 152.288 18.2597C152.288 17.0499 152.546 15.9621 153.061 14.9963C153.582 14.0304 154.29 13.2621 155.184 12.6914C156.079 12.1207 157.079 11.8353 158.183 11.8353C159.122 11.8353 159.951 12.0353 160.671 12.4353C161.395 12.8353 161.969 13.3865 162.392 14.089C162.82 14.7865 163.035 15.5792 163.035 16.467V20.0085C163.035 20.8963 162.825 21.689 162.407 22.3865C161.989 23.0841 161.415 23.6353 160.685 24.0402C159.956 24.4402 159.122 24.6402 158.183 24.6402ZM158.643 21.9768C159.683 21.9768 160.522 21.6256 161.16 20.9231C161.797 20.2256 162.115 19.3304 162.115 18.2378C162.115 17.5012 161.972 16.8524 161.685 16.2914C161.393 15.7256 160.987 15.2865 160.466 14.9743C159.951 14.6573 159.343 14.4987 158.643 14.4987C157.962 14.4987 157.361 14.6573 156.841 14.9743C156.325 15.2865 155.916 15.7256 155.615 16.2914C155.318 16.8524 155.17 17.5012 155.17 18.2378C155.17 18.9743 155.318 19.6231 155.615 20.1841C155.916 20.7451 156.325 21.1841 156.841 21.5012C157.361 21.8182 157.962 21.9768 158.643 21.9768ZM164.742 24.3841H161.94V21.0768L162.422 18.0841L161.94 15.1134V12.0914H164.742V24.3841ZM171.359 24.6402C170.678 24.6402 170.024 24.5499 169.396 24.3695C168.764 24.189 168.185 23.9329 167.66 23.6012C167.13 23.2695 166.67 22.8646 166.281 22.3865L168.068 20.5938C168.492 21.0914 168.98 21.4621 169.535 21.706C170.089 21.9548 170.714 22.0792 171.41 22.0792C172.042 22.0792 172.519 21.9841 172.84 21.7938C173.166 21.6085 173.329 21.3353 173.329 20.9743C173.329 20.5987 173.175 20.3109 172.869 20.1109C172.563 19.9012 172.166 19.7256 171.68 19.5841C171.193 19.4378 170.683 19.2865 170.148 19.1304C169.613 18.9792 169.102 18.7719 168.616 18.5085C168.129 18.2402 167.733 17.8768 167.426 17.4182C167.12 16.9548 166.967 16.3573 166.967 15.6256C166.967 14.8402 167.149 14.1646 167.514 13.5987C167.884 13.0378 168.404 12.6036 169.075 12.2963C169.746 11.989 170.551 11.8353 171.49 11.8353C172.477 11.8353 173.348 12.0109 174.102 12.3621C174.861 12.7085 175.495 13.2329 176.006 13.9353L174.219 15.728C173.864 15.2841 173.455 14.9499 172.993 14.7256C172.536 14.506 172.008 14.3963 171.41 14.3963C170.851 14.3963 170.418 14.4817 170.111 14.6524C169.805 14.8231 169.652 15.0695 169.652 15.3914C169.652 15.7329 169.805 15.9987 170.111 16.189C170.418 16.3743 170.812 16.5353 171.293 16.6719C171.779 16.8085 172.29 16.9597 172.825 17.1256C173.365 17.2865 173.876 17.5085 174.357 17.7914C174.844 18.0695 175.24 18.4451 175.546 18.9182C175.853 19.3865 176.006 19.9963 176.006 20.7475C176.006 21.9426 175.59 22.889 174.759 23.5865C173.922 24.289 172.789 24.6402 171.359 24.6402ZM181.828 24.6402C181.147 24.6402 180.493 24.5499 179.865 24.3695C179.233 24.189 178.654 23.9329 178.129 23.6012C177.599 23.2695 177.139 22.8646 176.75 22.3865L178.538 20.5938C178.961 21.0914 179.45 21.4621 180.004 21.706C180.559 21.9548 181.184 22.0792 181.879 22.0792C182.511 22.0792 182.988 21.9841 183.309 21.7938C183.635 21.6085 183.798 21.3353 183.798 20.9743C183.798 20.5987 183.645 20.3109 183.338 20.1109C183.032 19.9012 182.635 19.7256 182.149 19.5841C181.663 19.4378 181.152 19.2865 180.617 19.1304C180.082 18.9792 179.571 18.7719 179.085 18.5085C178.598 18.2402 178.202 17.8768 177.896 17.4182C177.589 16.9548 177.436 16.3573 177.436 15.6256C177.436 14.8402 177.618 14.1646 177.983 13.5987C178.353 13.0378 178.873 12.6036 179.544 12.2963C180.216 11.989 181.021 11.8353 181.959 11.8353C182.947 11.8353 183.817 12.0109 184.571 12.3621C185.33 12.7085 185.965 13.2329 186.475 13.9353L184.688 15.728C184.333 15.2841 183.924 14.9499 183.462 14.7256C183.005 14.506 182.477 14.3963 181.879 14.3963C181.32 14.3963 180.887 14.4817 180.58 14.6524C180.274 14.8231 180.121 15.0695 180.121 15.3914C180.121 15.7329 180.274 15.9987 180.58 16.189C180.887 16.3743 181.281 16.5353 181.762 16.6719C182.249 16.8085 182.759 16.9597 183.294 17.1256C183.834 17.2865 184.345 17.5085 184.826 17.7914C185.313 18.0695 185.709 18.4451 186.016 18.9182C186.322 19.3865 186.475 19.9963 186.475 20.7475C186.475 21.9426 186.059 22.889 185.228 23.5865C184.391 24.289 183.258 24.6402 181.828 24.6402Z" fill="white"/>
</svg>
