<svg width="247" height="40" viewBox="0 0 247 40" fill="none" xmlns="http://www.w3.org/2000/svg">
<path d="M32.6666 32.6667H30C29.2636 32.6667 28.6666 33.2637 28.6666 34.0001V38.0001C28.6666 38.7365 29.2636 39.3334 30 39.3334H32.6666C33.403 39.3334 34 38.7365 34 38.0001V34.0001C34 33.2637 33.403 32.6667 32.6666 32.6667Z" fill="#BDDBFF"/>
<path d="M10 32.6667H7.33333C6.59695 32.6667 6 33.2637 6 34.0001V38.0001C6 38.7365 6.59695 39.3334 7.33333 39.3334H10C10.7364 39.3334 11.3333 38.7365 11.3333 38.0001V34.0001C11.3333 33.2637 10.7364 32.6667 10 32.6667Z" fill="#BDDBFF"/>
<path d="M1.99998 10C1.82317 10 1.6536 9.92976 1.52858 9.80474C1.40355 9.67971 1.33331 9.51015 1.33331 9.33333V6C1.33384 5.46973 1.54473 4.96133 1.91968 4.58637C2.29464 4.21141 2.80304 4.00053 3.33331 4H4.66665C4.84346 4 5.01303 4.07024 5.13805 4.19526C5.26307 4.32029 5.33331 4.48986 5.33331 4.66667C5.33331 4.84348 5.26307 5.01305 5.13805 5.13807C5.01303 5.2631 4.84346 5.33333 4.66665 5.33333H3.33331C3.1565 5.33333 2.98693 5.40357 2.86191 5.5286C2.73688 5.65362 2.66665 5.82319 2.66665 6V9.33333C2.66665 9.51015 2.59641 9.67971 2.47138 9.80474C2.34636 9.92976 2.17679 10 1.99998 10ZM38 10C37.8232 10 37.6536 9.92976 37.5286 9.80474C37.4035 9.67971 37.3333 9.51015 37.3333 9.33333V6C37.3333 5.82319 37.2631 5.65362 37.1381 5.5286C37.013 5.40357 36.8435 5.33333 36.6666 5.33333H35.3333C35.1565 5.33333 34.9869 5.2631 34.8619 5.13807C34.7369 5.01305 34.6666 4.84348 34.6666 4.66667C34.6666 4.48986 34.7369 4.32029 34.8619 4.19526C34.9869 4.07024 35.1565 4 35.3333 4H36.6666C37.1969 4.00053 37.7053 4.21141 38.0803 4.58637C38.4552 4.96133 38.6661 5.46973 38.6666 6V9.33333C38.6666 9.51015 38.5964 9.67971 38.4714 9.80474C38.3464 9.92976 38.1768 10 38 10Z" fill="#44546C"/>
<path d="M4.66666 32.6667C4.66666 33.374 4.94761 34.0523 5.4477 34.5524C5.9478 35.0525 6.62608 35.3334 7.33332 35.3334H32.6667C33.3739 35.3334 34.0522 35.0525 34.5523 34.5524C35.0524 34.0523 35.3333 33.374 35.3333 32.6667V26.6667H4.66666V32.6667ZM32.6667 0.666748H7.33332C6.62608 0.666748 5.9478 0.9477 5.4477 1.4478C4.94761 1.94789 4.66666 2.62617 4.66666 3.33341V6.00008H35.3333V3.33341C35.3333 2.62617 35.0524 1.94789 34.5523 1.4478C34.0522 0.9477 33.3739 0.666748 32.6667 0.666748Z" fill="#BDDBFF"/>
<path d="M31.3333 29.3333H28.6666C27.9303 29.3333 27.3333 29.9302 27.3333 30.6666V31.3333C27.3333 32.0696 27.9303 32.6666 28.6666 32.6666H31.3333C32.0697 32.6666 32.6666 32.0696 32.6666 31.3333V30.6666C32.6666 29.9302 32.0697 29.3333 31.3333 29.3333Z" fill="white"/>
<path d="M11.3333 29.3333H8.66665C7.93027 29.3333 7.33331 29.9302 7.33331 30.6666V31.3333C7.33331 32.0696 7.93027 32.6666 8.66665 32.6666H11.3333C12.0697 32.6666 12.6666 32.0696 12.6666 31.3333V30.6666C12.6666 29.9302 12.0697 29.3333 11.3333 29.3333Z" fill="white"/>
<path d="M24 29.3333H16C15.6318 29.3333 15.3333 29.6317 15.3333 29.9999V31.9999C15.3333 32.3681 15.6318 32.6666 16 32.6666H24C24.3682 32.6666 24.6666 32.3681 24.6666 31.9999V29.9999C24.6666 29.6317 24.3682 29.3333 24 29.3333Z" fill="white"/>
<path d="M1.99996 9.33325H4.66663V14.6666H1.99996C1.64634 14.6666 1.3072 14.5261 1.05715 14.2761C0.807102 14.026 0.666626 13.6869 0.666626 13.3333V10.6666C0.666626 10.313 0.807102 9.97383 1.05715 9.72378C1.3072 9.47373 1.64634 9.33325 1.99996 9.33325ZM38 14.6666H35.3333V9.33325H38C38.3536 9.33325 38.6927 9.47373 38.9428 9.72378C39.1928 9.97383 39.3333 10.313 39.3333 10.6666V13.3333C39.3333 13.6869 39.1928 14.026 38.9428 14.2761C38.6927 14.5261 38.3536 14.6666 38 14.6666Z" fill="#BDDBFF"/>
<path d="M24 3.3335H16C15.6318 3.3335 15.3333 3.63197 15.3333 4.00016V5.3335C15.3333 5.70169 15.6318 6.00016 16 6.00016H24C24.3682 6.00016 24.6666 5.70169 24.6666 5.3335V4.00016C24.6666 3.63197 24.3682 3.3335 24 3.3335Z" fill="white"/>
<path d="M4.66666 6H20.0007V26.6667H4.66666V6Z" fill="white"/>
<path d="M20.0006 6H35.3339V26.6667H20.0006V6Z" fill="white"/>
<path d="M8.66667 15.9999C8.53483 15.9999 8.40597 15.9608 8.29636 15.8875C8.18676 15.8143 8.10133 15.7102 8.05088 15.5884C8.00043 15.4666 7.98723 15.3326 8.01294 15.2033C8.03866 15.074 8.10213 14.9552 8.19533 14.8619L12.1953 10.8619C12.3211 10.7405 12.4895 10.6733 12.6643 10.6748C12.8391 10.6763 13.0063 10.7465 13.1299 10.8701C13.2535 10.9937 13.3236 11.1609 13.3251 11.3357C13.3266 11.5105 13.2594 11.6789 13.138 11.8046L9.138 15.8046C9.07617 15.8666 9.00271 15.9158 8.92182 15.9493C8.84094 15.9828 8.75422 16 8.66667 15.9999ZM7.33333 21.9999C7.2015 21.9999 7.07263 21.9608 6.96303 21.8875C6.85342 21.8143 6.76799 21.7102 6.71755 21.5884C6.6671 21.4666 6.6539 21.3326 6.67961 21.2033C6.70532 21.074 6.76879 20.9552 6.862 20.8619L16.862 10.8619C16.9877 10.7405 17.1561 10.6733 17.3309 10.6748C17.5057 10.6763 17.6729 10.7465 17.7965 10.8701C17.9202 10.9937 17.9903 11.1609 17.9918 11.3357C17.9933 11.5105 17.9261 11.6789 17.8047 11.8046L7.80467 21.8046C7.74284 21.8666 7.66938 21.9158 7.58849 21.9493C7.5076 21.9828 7.42089 22 7.33333 21.9999ZM24 15.9999C23.8682 15.9999 23.7393 15.9608 23.6297 15.8875C23.5201 15.8143 23.4347 15.7102 23.3842 15.5884C23.3338 15.4666 23.3206 15.3326 23.3463 15.2033C23.372 15.074 23.4355 14.9552 23.5287 14.8619L27.5287 10.8619C27.6544 10.7405 27.8228 10.6733 27.9976 10.6748C28.1724 10.6763 28.3396 10.7465 28.4632 10.8701C28.5868 10.9937 28.6569 11.1609 28.6585 11.3357C28.66 11.5105 28.5928 11.6789 28.4713 11.8046L24.4713 15.8046C24.4095 15.8666 24.336 15.9158 24.2552 15.9493C24.1743 15.9828 24.0876 16 24 15.9999ZM22.6667 21.9999C22.5348 21.9999 22.406 21.9608 22.2964 21.8875C22.1868 21.8143 22.1013 21.7102 22.0509 21.5884C22.0004 21.4666 21.9872 21.3326 22.0129 21.2033C22.0387 21.074 22.1021 20.9552 22.1953 20.8619L32.1953 10.8619C32.3211 10.7405 32.4895 10.6733 32.6643 10.6748C32.8391 10.6763 33.0063 10.7465 33.1299 10.8701C33.2535 10.9937 33.3236 11.1609 33.3251 11.3357C33.3266 11.5105 33.2594 11.6789 33.138 11.8046L23.138 21.8046C23.0762 21.8666 23.0027 21.9158 22.9218 21.9493C22.8409 21.9828 22.7542 22 22.6667 21.9999Z" fill="#1447E6"/>
<path d="M27.3333 1.33333H28C28.1768 1.33333 28.3463 1.2631 28.4714 1.13807C28.5964 1.01305 28.6666 0.843478 28.6666 0.666667C28.6666 0.489856 28.5964 0.320286 28.4714 0.195262C28.3463 0.0702379 28.1768 0 28 0H27.3333C27.1565 0 26.9869 0.0702379 26.8619 0.195262C26.7369 0.320286 26.6666 0.489856 26.6666 0.666667C26.6666 0.843478 26.7369 1.01305 26.8619 1.13807C26.9869 1.2631 27.1565 1.33333 27.3333 1.33333ZM10.6666 26C10.4898 26 10.3202 26.0702 10.1952 26.1953C10.0702 26.3203 9.99996 26.4899 9.99996 26.6667C9.99996 26.8435 10.0702 27.0131 10.1952 27.1381C10.3202 27.2631 10.4898 27.3333 10.6666 27.3333H11.3333C11.5101 27.3333 11.6797 27.2631 11.8047 27.1381C11.9297 27.0131 12 26.8435 12 26.6667C12 26.4899 11.9297 26.3203 11.8047 26.1953C11.6797 26.0702 11.5101 26 11.3333 26H10.6666ZM31.3333 28.6667H28.6666C28.1364 28.6672 27.628 28.8781 27.253 29.253C26.878 29.628 26.6672 30.1364 26.6666 30.6667V31.3333C26.6672 31.8636 26.878 32.372 27.253 32.747C27.628 33.1219 28.1364 33.3328 28.6666 33.3333H31.3333C31.8636 33.3328 32.372 33.1219 32.7469 32.747C33.1219 32.372 33.3328 31.8636 33.3333 31.3333V30.6667C33.3328 30.1364 33.1219 29.628 32.7469 29.253C32.372 28.8781 31.8636 28.6672 31.3333 28.6667ZM32 31.3333C32 31.5101 31.9297 31.6797 31.8047 31.8047C31.6797 31.9298 31.5101 32 31.3333 32H28.6666C28.4898 32 28.3202 31.9298 28.1952 31.8047C28.0702 31.6797 28 31.5101 28 31.3333V30.6667C28 30.4899 28.0702 30.3203 28.1952 30.1953C28.3202 30.0702 28.4898 30 28.6666 30H31.3333C31.5101 30 31.6797 30.0702 31.8047 30.1953C31.9297 30.3203 32 30.4899 32 30.6667V31.3333ZM11.3333 28.6667H8.66663C8.13636 28.6672 7.62796 28.8781 7.253 29.253C6.87804 29.628 6.66716 30.1364 6.66663 30.6667V31.3333C6.66716 31.8636 6.87804 32.372 7.253 32.747C7.62796 33.1219 8.13636 33.3328 8.66663 33.3333H11.3333C11.8636 33.3328 12.372 33.1219 12.7469 32.747C13.1219 32.372 13.3328 31.8636 13.3333 31.3333V30.6667C13.3328 30.1364 13.1219 29.628 12.7469 29.253C12.372 28.8781 11.8636 28.6672 11.3333 28.6667ZM12 31.3333C12 31.5101 11.9297 31.6797 11.8047 31.8047C11.6797 31.9298 11.5101 32 11.3333 32H8.66663C8.48981 32 8.32025 31.9298 8.19522 31.8047C8.0702 31.6797 7.99996 31.5101 7.99996 31.3333V30.6667C7.99996 30.4899 8.0702 30.3203 8.19522 30.1953C8.32025 30.0702 8.48981 30 8.66663 30H11.3333C11.5101 30 11.6797 30.0702 11.8047 30.1953C11.9297 30.3203 12 30.4899 12 30.6667V31.3333ZM24 28.6667H16C15.6464 28.667 15.3075 28.8076 15.0575 29.0576C14.8076 29.3076 14.667 29.6465 14.6666 30V32C14.667 32.3535 14.8076 32.6925 15.0575 32.9424C15.3075 33.1924 15.6464 33.333 16 33.3333H24C24.3535 33.333 24.6924 33.1924 24.9424 32.9424C25.1924 32.6925 25.3329 32.3535 25.3333 32V30C25.3329 29.6465 25.1924 29.3076 24.9424 29.0576C24.6924 28.8076 24.3535 28.667 24 28.6667ZM16 32V30H24L24.0006 32H16Z" fill="#1447E6"/>
<path d="M38.6667 8.78933V6C38.6661 5.46973 38.4553 4.96133 38.0803 4.58637C37.7053 4.21141 37.1969 4.00053 36.6667 4H36V3.33333C35.9989 2.4496 35.6474 1.60237 35.0225 0.97748C34.3976 0.352588 33.5504 0.00105857 32.6667 0H30C29.8232 0 29.6536 0.0702379 29.5286 0.195262C29.4036 0.320286 29.3333 0.489856 29.3333 0.666667C29.3333 0.843478 29.4036 1.01305 29.5286 1.13807C29.6536 1.2631 29.8232 1.33333 30 1.33333H32.6667C33.1969 1.33386 33.7053 1.54475 34.0803 1.9197C34.4553 2.29466 34.6661 2.80306 34.6667 3.33333V5.33333H25.3333V4C25.333 3.64649 25.1924 3.30755 24.9424 3.05758C24.6924 2.80761 24.3535 2.66702 24 2.66667H16C15.6465 2.66702 15.3076 2.80761 15.0576 3.05758C14.8076 3.30755 14.667 3.64649 14.6667 4V5.33333H5.33333V3.33333C5.33386 2.80306 5.54475 2.29466 5.9197 1.9197C6.29466 1.54475 6.80306 1.33386 7.33333 1.33333H25.3333C25.5101 1.33333 25.6797 1.2631 25.8047 1.13807C25.9298 1.01305 26 0.843478 26 0.666667C26 0.489856 25.9298 0.320286 25.8047 0.195262C25.6797 0.0702379 25.5101 0 25.3333 0H7.33333C6.4496 0.00105857 5.60237 0.352588 4.97748 0.97748C4.35259 1.60237 4.00106 2.4496 4 3.33333V4H3.33333C2.80306 4.00053 2.29466 4.21141 1.9197 4.58637C1.54475 4.96133 1.33386 5.46973 1.33333 6V8.78933C0.944459 8.9263 0.60752 9.1803 0.368784 9.51644C0.130049 9.85258 0.00122435 10.2544 0 10.6667V13.3333C0.000529477 13.8636 0.211413 14.372 0.586371 14.747C0.961329 15.1219 1.46973 15.3328 2 15.3333H4V32.6667C4.0015 33.1821 4.12301 33.6901 4.3549 34.1504C4.5868 34.6107 4.9227 35.0107 5.336 35.3187C5.336 35.324 5.33333 35.328 5.33333 35.3333V38C5.33386 38.5303 5.54475 39.0387 5.9197 39.4136C6.29466 39.7886 6.80306 39.9995 7.33333 40H10C10.5303 39.9995 11.0387 39.7886 11.4136 39.4136C11.7886 39.0387 11.9995 38.5303 12 38V36H28V38C28.0005 38.5303 28.2114 39.0387 28.5864 39.4136C28.9613 39.7886 29.4697 39.9995 30 40H32.6667C33.1969 39.9995 33.7053 39.7886 34.0803 39.4136C34.4553 39.0387 34.6661 38.5303 34.6667 38V35.3333C34.6667 35.328 34.664 35.324 34.664 35.3187C35.0773 35.0107 35.4132 34.6107 35.6451 34.1504C35.877 33.6901 35.9985 33.1821 36 32.6667V15.3333H38C38.5303 15.3328 39.0387 15.1219 39.4136 14.747C39.7886 14.372 39.9995 13.8636 40 13.3333V10.6667C39.9988 10.2544 39.87 9.85258 39.6312 9.51644C39.3925 9.1803 39.0555 8.9263 38.6667 8.78933ZM36.6667 5.33333C36.8435 5.33333 37.0131 5.40357 37.1381 5.5286C37.2631 5.65362 37.3333 5.82319 37.3333 6V8.66667H36V5.33333H36.6667ZM34.6667 26H20.6673V6.66667H34.6667V26ZM16 4H24V5.33333H16V4ZM3.33333 5.33333H4V8.66667H2.66667V6C2.66667 5.82319 2.7369 5.65362 2.86193 5.5286C2.98695 5.40357 3.15652 5.33333 3.33333 5.33333ZM2 14C1.82319 14 1.65362 13.9298 1.5286 13.8047C1.40357 13.6797 1.33333 13.5101 1.33333 13.3333V10.6667C1.33333 10.4899 1.40357 10.3203 1.5286 10.1953C1.65362 10.0702 1.82319 10 2 10H4V14H2ZM10.6667 38C10.6667 38.1768 10.5964 38.3464 10.4714 38.4714C10.3464 38.5964 10.1768 38.6667 10 38.6667H7.33333C7.15652 38.6667 6.98695 38.5964 6.86193 38.4714C6.73691 38.3464 6.66667 38.1768 6.66667 38V35.9327C6.88606 35.9774 7.10941 36 7.33333 36H10.6667V38ZM33.3333 38C33.3333 38.1768 33.2631 38.3464 33.1381 38.4714C33.0131 38.5964 32.8435 38.6667 32.6667 38.6667H30C29.8232 38.6667 29.6536 38.5964 29.5286 38.4714C29.4036 38.3464 29.3333 38.1768 29.3333 38V36H32.6667C32.8906 36 33.1139 35.9774 33.3333 35.9327V38ZM32.6667 34.6667H7.33333C6.80306 34.6661 6.29466 34.4553 5.9197 34.0803C5.54475 33.7053 5.33386 33.1969 5.33333 32.6667V27.3333H8.66667C8.84348 27.3333 9.01305 27.2631 9.13807 27.1381C9.2631 27.013 9.33333 26.8435 9.33333 26.6667C9.33333 26.4899 9.2631 26.3203 9.13807 26.1953C9.01305 26.0702 8.84348 26 8.66667 26H5.33333V6.66667H19.334V26H13.3333C13.1565 26 12.987 26.0702 12.8619 26.1953C12.7369 26.3203 12.6667 26.4899 12.6667 26.6667C12.6667 26.8435 12.7369 27.013 12.8619 27.1381C12.987 27.2631 13.1565 27.3333 13.3333 27.3333H34.6667V32.6667C34.6661 33.1969 34.4553 33.7053 34.0803 34.0803C33.7053 34.4553 33.1969 34.6661 32.6667 34.6667ZM38.6667 13.3333C38.6667 13.5101 38.5964 13.6797 38.4714 13.8047C38.3464 13.9298 38.1768 14 38 14H36V10H38C38.1768 10 38.3464 10.0702 38.4714 10.1953C38.5964 10.3203 38.6667 10.4899 38.6667 10.6667V13.3333Z" fill="#1447E6"/>
<path d="M66.2383 34.0356H60.8314V6.91068H66.2383V34.0356ZM75.0697 11.0898H52V6.31366H75.0697V11.0898ZM78.6969 34.0356H73.5265V14.9873H78.6969V34.0356ZM78.6969 23.5146L76.6805 22.1628C76.9209 19.8273 77.6042 17.9837 78.7307 16.632C79.8647 15.2727 81.4943 14.5931 83.6195 14.5931C84.5432 14.5931 85.373 14.747 86.1089 15.0549C86.8449 15.3553 87.5133 15.8472 88.114 16.5306L84.8811 20.2366C84.5957 19.9212 84.2465 19.6846 83.8335 19.5269C83.428 19.3692 82.9624 19.2904 82.4367 19.2904C81.3328 19.2904 80.4316 19.6396 79.7332 20.338C79.0423 21.0289 78.6969 22.0877 78.6969 23.5146ZM96.5962 34.4299C94.8615 34.4299 93.2957 33.9981 91.8989 33.1345C90.5096 32.2633 89.4207 31.0768 88.6322 29.5749C87.8362 28.0805 87.4382 26.3983 87.4382 24.5284C87.4382 22.6359 87.8362 20.9425 88.6322 19.4481C89.4207 17.9462 90.5096 16.7634 91.8989 15.8998C93.2957 15.0286 94.8615 14.5931 96.5962 14.5931C97.963 14.5931 99.1833 14.8709 100.257 15.4267C101.339 15.9749 102.198 16.7446 102.837 17.7359C103.483 18.7196 103.832 19.8273 103.884 21.0589V27.919C103.832 29.1806 103.483 30.2996 102.837 31.2758C102.198 32.2446 101.339 33.0143 100.257 33.5851C99.1833 34.1483 97.963 34.4299 96.5962 34.4299ZM97.5424 29.6537C98.9843 29.6537 100.152 29.1769 101.046 28.2231C101.939 27.2619 102.386 26.0191 102.386 24.4946C102.386 23.4958 102.183 22.6097 101.778 21.8362C101.372 21.0552 100.805 20.4506 100.077 20.0226C99.356 19.587 98.5112 19.3692 97.5424 19.3692C96.5962 19.3692 95.7589 19.587 95.0304 20.0226C94.3095 20.4506 93.7463 21.0552 93.3408 21.8362C92.9352 22.6097 92.7325 23.4958 92.7325 24.4946C92.7325 25.5159 92.9352 26.4171 93.3408 27.1981C93.7463 27.9716 94.3095 28.5761 95.0304 29.0117C95.7589 29.4397 96.5962 29.6537 97.5424 29.6537ZM107.241 34.0356H102.116V28.9103L102.938 24.258L102.116 19.6846V14.9873H107.241V34.0356ZM129.004 34.0356H123.834V23.1091C123.834 21.9826 123.477 21.0627 122.764 20.3492C122.058 19.6433 121.142 19.2904 120.015 19.2904C119.279 19.2904 118.622 19.4481 118.044 19.7635C117.466 20.0789 117.011 20.5257 116.681 21.104C116.35 21.6822 116.185 22.3506 116.185 23.1091L114.18 22.084C114.18 20.5896 114.499 19.2829 115.138 18.1639C115.783 17.045 116.677 16.1701 117.819 15.5393C118.968 14.9085 120.263 14.5931 121.705 14.5931C123.102 14.5931 124.352 14.9423 125.456 15.6407C126.56 16.3391 127.427 17.2478 128.058 18.3667C128.689 19.4781 129.004 20.6797 129.004 21.9713V34.0356ZM116.185 34.0356H111.026V14.9873H116.185V34.0356ZM138.94 34.4749C137.858 34.4749 136.799 34.3285 135.763 34.0356C134.727 33.7428 133.773 33.341 132.902 32.8303C132.038 32.3197 131.287 31.6964 130.649 30.9604L133.735 27.8401C134.389 28.5761 135.151 29.1318 136.022 29.5073C136.886 29.8678 137.843 30.048 138.894 30.048C139.736 30.048 140.374 29.9316 140.809 29.6988C141.245 29.466 141.463 29.1093 141.463 28.6287C141.463 28.103 141.23 27.6975 140.764 27.4121C140.306 27.1192 139.709 26.8752 138.973 26.6799C138.237 26.4846 137.468 26.2631 136.664 26.0153C135.868 25.76 135.102 25.4295 134.366 25.024C133.63 24.6185 133.029 24.0553 132.564 23.3343C132.106 22.6059 131.877 21.6634 131.877 20.507C131.877 19.2979 132.173 18.2465 132.767 17.3529C133.36 16.4592 134.208 15.7646 135.312 15.269C136.416 14.7658 137.715 14.5142 139.21 14.5142C140.787 14.5142 142.214 14.7921 143.49 15.3478C144.767 15.896 145.826 16.7221 146.667 17.826L143.547 20.9463C142.968 20.2328 142.319 19.7184 141.598 19.403C140.87 19.0876 140.089 18.9299 139.255 18.9299C138.489 18.9299 137.903 19.0501 137.498 19.2904C137.092 19.5232 136.889 19.8499 136.889 20.2704C136.889 20.7435 137.118 21.1115 137.577 21.3743C138.035 21.6372 138.632 21.87 139.368 22.0727C140.104 22.268 140.873 22.4895 141.677 22.7373C142.48 22.9851 143.243 23.3343 143.964 23.7849C144.684 24.228 145.274 24.8213 145.732 25.5647C146.19 26.2932 146.419 27.2356 146.419 28.3921C146.419 30.262 145.751 31.7414 144.414 32.8303C143.077 33.9267 141.252 34.4749 138.94 34.4749ZM154.316 34.0356H149.111V14.9873H154.316V34.0356ZM151.713 11.9121C150.872 11.9121 150.174 11.6305 149.618 11.0673C149.07 10.5041 148.796 9.80191 148.796 8.96082C148.796 8.14227 149.07 7.44387 149.618 6.86562C150.174 6.28738 150.872 5.99826 151.713 5.99826C152.577 5.99826 153.279 6.28738 153.82 6.86562C154.361 7.44387 154.631 8.14227 154.631 8.96082C154.631 9.80191 154.361 10.5041 153.82 11.0673C153.279 11.6305 152.577 11.9121 151.713 11.9121ZM166.064 34.0356H160.894V7.06838H166.064V34.0356ZM170.514 19.5269H156.445V14.9873H170.514V19.5269ZM185.462 34.0356H180.1V6.31366H185.462V34.0356ZM202.843 34.0356H197.481V6.31366H202.843V34.0356ZM198.979 22.084H183.491V17.3529H198.979V22.084ZM215.302 34.4299C213.619 34.4299 212.129 34.0769 210.83 33.371C209.53 32.6576 208.513 31.6701 207.777 30.4085C207.041 29.1468 206.673 27.6862 206.673 26.0266V14.9873H211.877V25.9139C211.877 26.7024 212.009 27.3783 212.271 27.9415C212.534 28.5048 212.929 28.9328 213.454 29.2257C213.98 29.511 214.596 29.6537 215.302 29.6537C216.383 29.6537 217.224 29.3271 217.825 28.6737C218.433 28.0129 218.737 27.0929 218.737 25.9139V14.9873H223.896V26.0266C223.896 27.7087 223.536 29.1806 222.815 30.4422C222.094 31.7114 221.08 32.6914 219.774 33.3823C218.475 34.0807 216.984 34.4299 215.302 34.4299ZM237.774 34.4299C236.408 34.4299 235.172 34.1408 234.068 33.5625C232.964 32.9843 232.086 32.1958 231.432 31.197C230.772 30.1982 230.415 29.0792 230.362 27.8401V21.0589C230.415 19.8273 230.775 18.7196 231.444 17.7359C232.12 16.7446 233.009 15.9749 234.113 15.4267C235.217 14.8709 236.438 14.5931 237.774 14.5931C239.539 14.5931 241.116 15.0286 242.505 15.8998C243.902 16.7634 244.999 17.9462 245.795 19.4481C246.598 20.9425 247 22.6359 247 24.5284C247 26.3983 246.598 28.0805 245.795 29.5749C244.999 31.0768 243.902 32.2633 242.505 33.1345C241.116 33.9981 239.539 34.4299 237.774 34.4299ZM232.334 34.0356H227.208V5.52515H232.379V19.6846L231.511 24.258L232.334 28.9103V34.0356ZM236.907 29.6537C237.853 29.6537 238.687 29.4397 239.408 29.0117C240.136 28.5761 240.703 27.9716 241.109 27.1981C241.514 26.4171 241.717 25.5159 241.717 24.4946C241.717 23.4958 241.514 22.6097 241.109 21.8362C240.703 21.0552 240.132 20.4506 239.396 20.0226C238.661 19.587 237.819 19.3692 236.873 19.3692C235.927 19.3692 235.09 19.587 234.361 20.0226C233.64 20.4506 233.077 21.0552 232.672 21.8362C232.266 22.6097 232.063 23.4958 232.063 24.4946C232.063 25.5159 232.266 26.4171 232.672 27.1981C233.077 27.9716 233.648 28.5761 234.384 29.0117C235.12 29.4397 235.961 29.6537 236.907 29.6537Z" fill="#111111"/>
</svg>
